<?xml version="1.0" standalone="no"?>
<!DOCTYPE svg PUBLIC "-//W3C//DTD SVG 1.1//EN" "http://www.w3.org/Graphics/SVG/1.1/DTD/svg11.dtd" >
<svg>
<metadata>
Created by FontForge 20090914 at Thu Feb 23 19:38:05 2012
 By ffonts
*Freeware* - designed by Dreamfonts&#194;&#169;1998 especially for use on the Worldwide Web.
</metadata>
<defs>
<font id="Dreamspeak" horiz-adv-x="540" >
  <font-face 
    font-family="Dreamspeak"
    font-weight="400"
    font-stretch="normal"
    units-per-em="1000"
    panose-1="2 0 5 0 0 0 0 0 0 0"
    ascent="800"
    descent="-200"
    x-height="432"
    cap-height="977"
    bbox="-116 -288 2282 1300"
    underline-thickness="10"
    underline-position="-140"
    unicode-range="U+0020-U+2122"
  />
<missing-glyph horiz-adv-x="502" 
d="M-1 0h500v500h-500v-500zM9 10v480h480v-480h-480z" />
    <glyph glyph-name=".notdef" horiz-adv-x="502" 
d="M-1 0h500v500h-500v-500zM9 10v480h480v-480h-480z" />
    <glyph glyph-name="space" unicode=" " horiz-adv-x="234" 
 />
    <glyph glyph-name="exclam" unicode="!" horiz-adv-x="354" 
d="M232 313v566q0 28 -13 47q-14 16 -40 16q-54 0 -54 -63v-566q0 -30 15 -45q14 -18 39 -18q53 0 53 63zM241 61q0 25 -19 46q-16 19 -43 19q-28 0 -44 -19q-17 -18 -17 -46q0 -29 17 -50q21 -21 44 -21q22 0 43 21q19 24 19 50z" />
    <glyph glyph-name="quotedbl" unicode="&#x22;" horiz-adv-x="312" 
d="M268 543v142q0 20 -10 31q-11 10 -25 10q-15 0 -25 -11q-11 -11 -11 -30v-142q0 -18 11 -26q10 -9 25 -9q14 0 25 10q10 9 10 25zM134 543v142q0 20 -10 31q-11 10 -25 10q-15 0 -25 -11q-11 -11 -11 -30v-142q0 -18 11 -26q10 -9 25 -9q14 0 25 10q10 9 10 25z" />
    <glyph glyph-name="numbersign" unicode="#" horiz-adv-x="641" 
d="M591 569q24 0 36 12q13 14 13 30q0 15 -13 27q-10 13 -36 13h-76l28 248q0 17 -11 33q-12 12 -26 12q-38 0 -38 -45l-30 -248h-162l29 248q0 17 -11 33q-12 12 -27 12q-38 0 -38 -45l-29 -248h-94q-23 0 -32 -13q-12 -12 -12 -27t12 -30q11 -12 32 -12h84l-28 -205h-86
q-26 0 -42 -16q-14 -10 -14 -27q0 -16 15 -30q15 -12 41 -12l77 -2l-30 -237q0 -10 -1 -13q0 -51 33 -51q16 0 29 19q12 22 16 46l29 238h162l-29 -239q0 -10 -1 -13q0 -51 33 -51q17 0 27 19q14 20 17 46l30 238h75q29 0 43 13q16 16 16 32q0 40 -49 40h-77l29 205h86z
M428 569l-28 -205h-162l27 205h163z" />
    <glyph glyph-name="dollar" unicode="$" horiz-adv-x="564" 
d="M545 284q0 117 -78 183q-26 20 -67 42t-97 43v307q39 -6 78 -30l32 -17q29 -16 35 -16q16 0 27 13q12 12 12 31q0 40 -53 72q-55 33 -131 33v68q0 24 -20 24q-16 0 -16 -24v-68q-106 -9 -175 -87q-58 -69 -58 -150q0 -106 71 -168q44 -37 162 -78v-381q-71 0 -136 36
q-59 36 -72 36q-14 0 -26 -14l-1 -3q-7 -18 -7 -33q0 -40 68 -74q43 -20 84.5 -31t89.5 -11v-65q0 -24 16 -24q20 0 20 24v71q60 13 104 38.5t76 67.5q62 77 62 185zM267 567q-37 16 -62.5 29.5t-39.5 25.5q-33 39 -33 92q0 61 32 98q36 37 103 47v-292zM446 278
q0 -72 -37 -124q-40 -58 -106 -69v364q45 -21 66.5 -33.5t36.5 -28.5q40 -37 40 -109z" />
    <glyph glyph-name="percent" unicode="%" horiz-adv-x="887" 
d="M428 713q0 106 -55 171q-52 64 -134 64q-99 0 -147 -71q-45 -61 -45 -164q0 -94 53 -161q55 -67 139 -67q81 0 136 61q53 61 53 167zM352 723q0 -94 -35 -134q-27 -31 -78 -31q-50 0 -83 45t-33 110q0 73 30 119q30 45 86 45q47 0 80 -38q33 -37 33 -116zM646 888
q7 17 7 27q0 22 -11 30q-10 11 -26 11q-32 0 -45 -37l-314 -878q-1 -3 -1 -4q-4 -14 -4 -27q0 -40 29 -40q17 0 29 11q13 15 21 49zM858 206q0 106 -55 172q-54 67 -136 67q-93 0 -146 -74q-45 -65 -45 -165q0 -91 54 -160q54 -70 137 -70q80 0 136 64q55 60 55 166z
M782 216q0 -94 -36 -133q-31 -31 -79 -31q-51 0 -82 46q-32 42 -32 108q0 73 30 118q29 47 84 47q50 0 79 -36q36 -37 36 -119z" />
    <glyph glyph-name="ampersand" unicode="&#x26;" horiz-adv-x="801" 
d="M762 83l-105 123l95 165q10 14 10 34t-12 36q-11 11 -29 11q-15 0 -29 -8q-13 -8 -25 -32l-67 -124l-218 270q84 37 123 84q38 43 38 99q-6 80 -67 121q-56 43 -135 43q-81 0 -133 -43q-55 -40 -55 -121q0 -57 96 -161q-113 -79 -162 -165q-39 -72 -39 -145q0 -27 9 -72
q18 -103 99 -167q76 -56 171 -56q79 0 149 44q70 35 115 115l105 -124q20 -23 41 -23q20 0 30 17q12 12 12 33q0 24 -17 46zM342 813q51 0 78 -18q28 -21 28 -47q0 -28 -32 -62q-34 -31 -91 -56q-76 75 -76 127q0 56 93 56zM543 206q-38 -68 -100 -104q-56 -38 -128 -38
q-63 0 -105 35q-44 34 -60 106q-7 31 -7 62q0 61 36 122q39 61 116 119z" />
    <glyph glyph-name="quotesingle" unicode="'" horiz-adv-x="187" 
d="M134 543v142q0 20 -10 31q-11 10 -25 10q-15 0 -25 -11q-11 -11 -11 -30v-142q0 -18 11 -26q10 -9 25 -9q14 0 25 10q10 9 10 25z" />
    <glyph glyph-name="parenleft" unicode="(" horiz-adv-x="289" 
d="M244 -96l-22 132l-22 132q-22 125 -22 248q0 112 20 238l22 129l24 144q0 15 -11 26q-12 12 -31 12t-34 -20q-9 -9 -19 -40q-34 -101 -52 -225q-18 -129 -18 -264q0 -139 18 -265q18 -127 52 -224q10 -32 28 -52q11 -6 25 -6q42 0 42 35z" />
    <glyph glyph-name="parenright" unicode=")" horiz-adv-x="289" 
d="M213 416q0 138 -18 265q-17 123 -52 224q-14 38 -25 48q-15 12 -29 12q-42 0 -42 -38q11 -59 28 -162l17 -101q21 -119 21 -248q0 -116 -19 -240l-38 -218l-9 -54q0 -10 11 -26q10 -9 31 -9q20 0 34 18q9 7 20 40q34 97 52 225q18 129 18 264z" />
    <glyph glyph-name="asterisk" unicode="*" horiz-adv-x="382" 
d="M323 504l-95 39l95 40q17 7 17 29q0 14 -7 24t-19 10q-11 0 -23 -8l-78 -55l7 110q0 14 -9 22q-10 7 -22 7q-32 0 -32 -29l8 -110l-78 55q-12 9 -26 9q-13 0 -22 -9q-10 -10 -10 -22q0 -21 26 -33l95 -40l-95 -39q-19 -7 -19 -29q0 -14 9 -24q8 -11 21 -11q10 0 24 9
l75 55l-8 -103q0 -20 10 -31q9 -11 22 -11q12 0 22 12q9 11 9 30l-7 103l70 -55q10 -7 21 -7q16 0 29 11t13 24q0 18 -23 27z" />
    <glyph glyph-name="plus" unicode="+" horiz-adv-x="594" 
d="M553 253q0 41 -43 41h-169v169q0 20 -10 32q-11 11 -31 11q-41 0 -41 -43v-169h-169q-20 0 -31 -10q-12 -11 -12 -31q0 -41 43 -41h169v-169q0 -20 11 -31q10 -12 30 -12q41 0 41 43v169h169q20 0 32 11q11 10 11 30z" />
    <glyph glyph-name="comma" unicode="," horiz-adv-x="234" 
d="M165 47q3 6 3 12q0 13 -13 23q-13 9 -29 9q-24 0 -33 -20l-62 -143q-5 -13 -5 -21q0 -16 12 -26q11 -9 26 -9q22 0 30 18z" />
    <glyph glyph-name="hyphen" unicode="-" horiz-adv-x="350" 
d="M276 228q20 0 31 11q10 10 10 24q0 15 -10 26q-11 10 -31 10h-197q-20 0 -30 -10q-11 -11 -11 -26q0 -14 11 -24q11 -11 30 -11h197z" />
    <glyph glyph-name="period" unicode="." horiz-adv-x="234" 
d="M183 15q6 11 6 24q0 28 -24 42q-11 6 -24 6q-28 0 -42 -24q-6 -11 -6 -24q0 -28 24 -42q11 -6 24 -6q28 0 42 24z" />
    <glyph glyph-name="slash" unicode="/" horiz-adv-x="491" 
d="M448 877q3 12 3 24q0 20 -11 32q-10 12 -26 12q-34 0 -53 -57l-304 -824q-5 -20 -5 -34q0 -18 11 -34q15 -13 26 -13q13 0 29 12q14 12 15 29z" />
    <glyph glyph-name="zero" unicode="0" 
d="M503 356q0 167 -69 267q-65 95 -166 95q-102 0 -167 -95q-68 -99 -68 -267q0 -167 69 -267q65 -95 166 -95q102 0 169 97q66 97 66 265zM409 356q0 -143 -41 -218q-37 -68 -100 -68q-62 0 -100 69q-41 75 -41 217q0 143 41 218q37 68 100 68q62 0 102 -72q39 -72 39 -214
z" />
    <glyph glyph-name="one" unicode="1" 
d="M337 14v647q0 16 -7 21q-4 3 -20 3h-144q-16 0 -27 -11t-11 -27t11 -27t27 -11h83v-595q0 -22 12 -35q11 -12 32 -12q44 0 44 47z" />
    <glyph glyph-name="two" unicode="2" 
d="M490 38q0 16 -11 27t-27 11h-270l239 318q25 34 37 74q12 39 12 73q0 72 -52 123q-55 54 -140 54q-48 0 -88 -14q-40 -15 -69 -42q-35 -31 -52 -74q-18 -43 -18 -93q0 -54 43 -54q16 0 28 10q11 9 11 30q0 74 36 118q35 43 94 43q49 0 81 -31t32 -80q0 -31 -13 -60
t-39 -66l-95 -128l-13 -17l-96 -129l-41 -54q-20 -26 -20 -41q0 -14 11 -25t37 -11h345q16 0 27 11t11 27z" />
    <glyph glyph-name="three" unicode="3" 
d="M476 210q0 62 -31 109q-32 46 -91 64q41 25 63 65q21 40 21 86q0 78 -51 131t-134 53q-43 0 -78 -14q-35 -15 -59 -40q-50 -50 -50 -126q0 -17 11 -29t29 -12q23 0 33 11q9 10 9 30q4 47 26 73q26 31 75 31q46 0 74 -32q27 -32 27 -84q0 -49 -24 -76t-73 -38t-49 -39
q0 -38 54 -38q56 0 87 -27q37 -33 37 -106q0 -56 -38 -94t-97 -38q-48 0 -77 25q-29 24 -43 68q-15 44 -49 44q-17 0 -27 -13t-10 -36q0 -52 49 -102q60 -62 159 -62q98 0 163 59q64 58 64 157z" />
    <glyph glyph-name="four" unicode="4" 
d="M505 221q0 16 -11 27t-27 11h-45v386q0 38 -18 56q-19 17 -50 17q-30 0 -41 -7q-20 -12 -52 -66l-228 -380q-11 -17 -16 -29q-5 -13 -5 -22q0 -15 9 -23q8 -8 29 -8h284v-142q0 -22 12 -34q11 -13 32 -13q44 0 44 47v142h45q16 0 27 11t11 27zM334 259h-212l212 364v-364
z" />
    <glyph glyph-name="five" unicode="5" 
d="M484 244q0 86 -55 151q-57 68 -137 68q-55 0 -94 -20l30 193h203q16 0 27 11t11 27t-11 27t-27 11h-247q-29 0 -33 -23l-37 -249q-1 -12 -4 -30q-3 -20 -3 -29q0 -12 8 -19q7 -8 22 -8l60 18q29 9 61 9q63 0 99 -46q33 -42 33 -108q0 -63 -41 -107t-104 -44
q-59 0 -109 37t-60 37q-17 0 -24 -11q-8 -11 -8 -27q0 -37 56 -75q63 -43 144 -43q108 0 174 68t66 182z" />
    <glyph glyph-name="six" unicode="6" 
d="M484 226q0 98 -47 164q-50 71 -133 71q-34 0 -60 -8q-27 -8 -53 -21q16 28 27 45q32 50 63 91q23 29 68 70q28 26 28 39q0 19 -12 30t-24 11q-17 0 -41 -20q-48 -41 -84 -80q-45 -49 -79 -103q-40 -63 -61 -128q-24 -73 -24 -148q0 -106 61 -175q60 -70 153 -70
q94 0 156 67t62 165zM390 230q0 -66 -30 -108q-33 -46 -95 -46q-63 0 -96 46q-29 40 -29 108q0 66 32 111q31 44 93 44q64 0 96 -43q29 -38 29 -112z" />
    <glyph glyph-name="seven" unicode="7" 
d="M472 684q0 28 -45 28h-361q-16 0 -27 -11t-11 -27t11 -27q10 -11 26 -11l300 -2l-249 -559q-10 -24 -11 -31q-2 -8 -2 -16q0 -13 9 -23q9 -11 24 -11q17 0 31 7t22 25l266 605q6 13 11 25q6 15 6 28z" />
    <glyph glyph-name="eight" unicode="8" 
d="M486 219q0 65 -33 113q-36 51 -96 65q50 31 72 67q21 35 21 91q0 78 -57 123q-51 40 -125 40q-73 0 -125 -41q-57 -45 -57 -122q0 -55 22 -91t71 -67q-61 -14 -95 -63q-34 -50 -34 -115q0 -92 57 -156q62 -69 161 -69q100 0 161 69q57 64 57 156zM368 538q0 -48 -26 -76
q-27 -29 -74 -29q-46 0 -73 29t-27 76t27 76q26 28 73 28q46 0 73 -29t27 -75zM392 215q0 -67 -36 -106t-88 -39t-88 40q-36 39 -36 105q0 60 33 101q32 41 91 41t93 -44q31 -40 31 -98z" />
    <glyph glyph-name="nine" unicode="9" 
d="M484 473q0 106 -60 176q-61 69 -154 69q-94 0 -156 -67t-62 -165q0 -73 28 -131q27 -59 77 -85q35 -19 76 -19q28 0 59 8t55 20q-37 -68 -76 -117q-33 -42 -77 -81q-19 -17 -27 -27t-8 -20q0 -19 12 -29q12 -11 24 -11q17 0 41 20q63 53 112 113q63 77 96 155
q40 94 40 191zM396 481q0 -66 -30 -108q-33 -46 -95 -46q-64 0 -94 40q-31 40 -31 114q0 66 32 111q31 44 93 44q63 0 96 -47q29 -40 29 -108z" />
    <glyph glyph-name="colon" unicode=":" horiz-adv-x="239" 
d="M166 365q0 20 -14 36t-34 16t-36 -14t-16 -34q0 -21 14 -36t35 -15q22 0 37 14q14 13 14 33zM166 29q0 21 -15 36t-35 15q-21 0 -35 -15q-15 -15 -15 -36t15 -36q14 -15 35 -15q20 0 35 15t15 36z" />
    <glyph glyph-name="semicolon" unicode=";" horiz-adv-x="239" 
d="M174 374q0 20 -14 36t-34 16t-36 -14t-16 -34q0 -21 14 -36t35 -15q22 0 37 14q14 13 14 33zM165 31q4 12 4 16q0 17 -12 29q-13 11 -29 11q-27 0 -41 -32l-56 -135q-3 -8 -3 -15q0 -16 13 -27q12 -11 27 -11q24 0 34 23z" />
    <glyph glyph-name="less" unicode="&#x3c;" horiz-adv-x="607" 
d="M533 34q0 17 -17 28q-2 2 -16 9l-350 181l351 187q17 9 22 14q10 9 10 24q0 16 -9 27q-10 11 -24 11q-10 0 -28 -8q-12 -6 -21 -10l-369 -199q-36 -18 -36 -45q0 -28 36 -46l369 -192q23 -11 33 -14q8 -3 16 -3q13 0 23 11q10 10 10 25z" />
    <glyph glyph-name="equal" unicode="=" horiz-adv-x="607" 
d="M541 357q0 41 -43 41h-408q-20 0 -31 -10q-12 -11 -12 -31q0 -41 43 -41h408q20 0 32 11q11 10 11 30zM541 149q0 41 -43 41h-408q-20 0 -31 -10q-12 -11 -12 -31q0 -41 43 -41h408q20 0 32 11q11 10 11 30z" />
    <glyph glyph-name="greater" unicode="&#x3e;" horiz-adv-x="607" 
d="M554 253q0 28 -36 46l-366 189q-25 12 -28 13q-13 5 -21 5q-13 0 -23 -11q-10 -12 -10 -27q0 -18 15 -29q3 -2 16 -9l349 -177l-348 -191q-17 -9 -22 -14q-10 -9 -10 -24q0 -16 10 -27q9 -10 23 -10q10 0 24 6l25 13l366 201q36 18 36 46z" />
    <glyph glyph-name="question" unicode="?" 
d="M501 693q0 113 -68 172q-62 56 -160 56q-103 0 -165 -44q-60 -41 -83 -120l-1 -9t-1 -12q0 -25 17 -44q16 -17 35 -17q15 0 28 11q13 13 17 37q12 59 47 83q42 26 85 26q58 0 108 -36q47 -39 47 -92q0 -127 -101 -162q-100 -33 -100 -77v-186q0 -26 14 -39q16 -13 34 -13
q20 0 33 12q7 6 10.5 17t3.5 23v157q200 43 200 257zM318 41q0 25 -18 47q-17 19 -43 19q-23 0 -41 -19q-19 -24 -19 -47t19 -47q17 -20 41 -20q27 0 43 21q18 23 18 46z" />
    <glyph glyph-name="at" unicode="@" horiz-adv-x="982" 
d="M924 532q0 169 -130 257q-118 78 -308 78q-158 0 -291 -118q-148 -133 -148 -331q0 -178 130 -308q132 -130 309 -130q120 0 210 37q66 25 152 106q22 27 22 45q0 25 -22 25q-23 0 -48 -31q-40 -46 -128 -79q-90 -36 -186 -36q-131 0 -243 103q-120 112 -120 268
q0 162 118 272q106 100 245 100q135 0 241 -68q123 -81 123 -216q0 -36 -7 -70q-7 -31 -23 -75q-26 -61 -74 -104q-43 -35 -76 -35q-37 0 -37 44q0 2 1 10v10q1 5 4 14q0 1 1 5l97 296v17q0 20 -11 28q-13 10 -24 10q-16 0 -32 -17q-17 -18 -21 -49q-33 48 -70 70t-81 22
q-24 0 -43 -5q-2 -1 -15 -5q-10 -3 -15 -5q-61 -26 -108 -80q-50 -56 -67 -111q-27 -76 -27 -136q0 -59 22 -100q24 -43 62 -64q41 -23 88 -23q42 0 85 20q39 19 64 56q12 -76 88 -76q97 0 190 102q103 116 103 277zM563 352q-35 -58 -75 -87q-36 -25 -73 -25q-20 0 -38 5
q-29 15 -43 39q-16 25 -16 63q0 18 7 42q19 92 71 147t113 55h18q39 0 58 -27q20 -28 20 -70q0 -61 -42 -142z" />
    <glyph glyph-name="A" unicode="A" horiz-adv-x="734" 
d="M702 87l-280 826q-8 24 -28 42q-12 14 -32 14q-44 0 -61 -56l-272 -822q-1 -9 -4 -23q-3 -20 -3 -31t4 -26l1 -4q6 -15 14 -15q14 0 30 22t31 60l51 138h424l49 -142q15 -37 33 -53q16 -25 29 -25q25 0 25 42q0 10 -1 24q-1 4 -2 6q-4 14 -8 23zM541 301h-364l184 567z
" />
    <glyph glyph-name="B" unicode="B" horiz-adv-x="648" 
d="M598 286q0 78 -34 139q-49 79 -142 104q-4 0 -4 4q0 3 5 5q57 25 84 72q25 44 25 124q0 113 -73 174q-74 62 -204 62h-132q-29 0 -43 -23q-15 -22 -15 -58v-808q0 -42 20 -54q19 -19 58 -19h208q112 0 181 74q66 75 66 204zM444 741q0 -2 1 -7q1 -8 1 -13q0 -64 -47 -110
q-52 -48 -144 -48h-104v311h133q67 0 113 -41q39 -33 47 -92zM507 280q0 -74 -46 -119q-50 -56 -138 -56h-172v372h133q106 0 167 -61q56 -57 56 -136z" />
    <glyph glyph-name="C" unicode="C" horiz-adv-x="715" 
d="M696 85q17 26 17 48q0 23 -10 32t-26 9q-11 0 -24 -5h-1q-15 -9 -23 -17q-16 -21 -35 -33t-43 -20q-47 -14 -113 -14q-168 0 -240 149q-44 92 -44 234q0 150 65 269q78 138 209 138q43 0 95 -27q52 -29 86 -69q15 -13 29 -13q19 0 35 18t16 37q0 18 -12 33
q-54 57 -117 88q-64 30 -132 30q-191 0 -294 -163q-87 -138 -87 -341q0 -180 77 -311q105 -182 314 -182q67 0 133 25q84 33 125 85z" />
    <glyph glyph-name="D" unicode="D" horiz-adv-x="762" 
d="M724 477q0 214 -94 350q-93 135 -248 135h-222q-35 0 -54 -20q-20 -19 -20 -52v-827q0 -63 55 -63h241q178 0 264 137q78 124 78 340zM619 492q0 -233 -87 -326q-63 -69 -180 -69h-180v769h170q148 0 215 -100q62 -91 62 -274z" />
    <glyph glyph-name="E" unicode="E" horiz-adv-x="534" 
d="M442 -4q50 0 50 52q0 21 -13 34q-13 17 -37 17h-270v351h258q20 0 32 14q11 12 11 34q0 21 -11 33q-11 15 -32 15h-258v320h267q20 0 33 15q11 14 11 31q0 20 -11 36q-13 14 -33 14h-298q-55 0 -55 -72v-817q0 -77 55 -77h301z" />
    <glyph glyph-name="F" unicode="F" horiz-adv-x="495" 
d="M428 866q21 0 33 15q11 12 11 31q0 22 -11 36t-33 14h-287q-55 0 -55 -69v-868q0 -29 13 -41q10 -11 31 -11q19 0 30 12q12 17 12 40v414h228q23 0 32 13q11 14 11 35t-12 33q-10 15 -31 15h-228v331h256z" />
    <glyph glyph-name="G" unicode="G" horiz-adv-x="810" 
d="M782 428q0 51 -12 75q-23 43 -90 43h-127q-30 0 -44 -15q-14 -14 -14 -35q0 -20 13 -33t35 -13h146v-21v-33q0 -132 -64 -220q-69 -91 -187 -91q-134 0 -208 108q-76 104 -76 276q0 152 54 267q74 153 220 153q62 0 124 -39q18 -11 84 -68q1 -1 3 -2q16 -14 34 -14
q20 0 34 14q15 18 15 35q0 21 -17 41q-51 55 -125 91q-74 35 -142 35q-173 0 -282 -143q-109 -144 -109 -370q0 -204 87 -332q101 -150 294 -150q79 0 141.5 24t108.5 68q104 113 104 349z" />
    <glyph glyph-name="H" unicode="H" horiz-adv-x="810" 
d="M724 25v904q0 20 -13 35q-12 13 -30 13q-17 0 -30 -13q-12 -15 -12 -35v-394h-477v394q0 22 -12 35q-13 13 -30 13q-18 0 -31 -13t-13 -35v-904q0 -29 13 -41q11 -11 31 -11q19 0 30 12q12 15 12 40v414h477v-414q0 -30 12 -41q10 -11 30 -11t31 11q12 17 12 41z" />
    <glyph glyph-name="I" unicode="I" horiz-adv-x="249" 
d="M162 29v900q0 22 -12 35q-13 13 -30 13q-18 0 -31 -13t-13 -35v-900q0 -20 13 -34q14 -15 31 -15t30 15q12 15 12 34z" />
    <glyph glyph-name="J" unicode="J" horiz-adv-x="428" 
d="M342 195v734q0 23 -12 35q-13 13 -30 13t-29 -13q-14 -14 -14 -35v-734q0 -63 -33 -95q-26 -27 -72 -27q-34 0 -55 8q-25 13 -40 36q-16 18 -35 18q-16 0 -31 -13q-12 -10 -12 -35q0 -13 11 -33q29 -40 71 -59q39 -20 101 -20q85 0 137 69q43 59 43 151z" />
    <glyph glyph-name="K" unicode="K" horiz-adv-x="665" 
d="M644 54l-413 447l386 389q22 19 22 43q0 19 -13 28q-9 14 -25 14q-10 0 -20 -10l-424 -425v401q0 13 -12 22q-9 12 -24 12t-26 -12q-9 -9 -9 -22v-922q0 -20 10 -32q11 -13 25 -13t22 13q14 11 14 32v462l434 -486q15 -24 36 -24q16 0 24 10q12 18 12 39q0 19 -19 34z
" />
    <glyph glyph-name="L" unicode="L" horiz-adv-x="448" 
d="M376 0q23 0 32 16q6 9 8.5 15t2.5 17q0 21 -12 33q-13 16 -31 16h-219v822q0 22 -12 35q-15 13 -29 13q-20 0 -31 -13q-13 -13 -13 -35v-842q0 -77 63 -77h241z" />
    <glyph glyph-name="M" unicode="M" horiz-adv-x="1002" 
d="M961 61l-112 845q-5 37 -24 55q-14 20 -38 20q-26 0 -45 -20q-25 -23 -34 -56l-210 -783l-193 775q-10 36 -35 61q-19 23 -46 23q-25 0 -41 -20q-15 -21 -21 -55l-115 -845q0 -11 -1 -18q0 -19 6 -42l2 -6q11 -14 23 -14q33 0 40 55l112 858l228 -855q7 -26 18 -42
t25 -16q13 0 23.5 15.5t17.5 42.5l241 853l110 -856q2 -14 14 -40q12 -15 24 -15q14 0 22 17q11 18 11 43q0 10 -2 20z" />
    <glyph glyph-name="N" unicode="N" horiz-adv-x="801" 
d="M725 36v902q0 19 -13 29q-9 13 -26 13q-16 0 -26 -13q-9 -9 -9 -29v-797l-466 776q-31 59 -65 59q-24 0 -24 -48v-903q0 -14 10 -34q11 -13 25 -13t23 12q13 21 13 35v788l464 -784q14 -27 31.5 -41.5t34.5 -14.5q28 0 28 63z" />
    <glyph glyph-name="O" unicode="O" horiz-adv-x="829" 
d="M782 478q0 237 -108 369q-101 125 -264 125q-175 0 -275 -151q-88 -135 -88 -343q0 -221 110 -360q102 -131 253 -131q184 0 286 165q86 133 86 326zM686 478q0 -153 -59 -261q-73 -132 -217 -132q-135 0 -205 126q-62 109 -62 267q0 159 48 255q69 142 219 142
q123 0 198 -111q78 -106 78 -286z" />
    <glyph glyph-name="P" unicode="P" horiz-adv-x="629" 
d="M609 663q0 144 -61 218q-66 81 -206 81h-201q-30 0 -43 -16q-12 -18 -12 -46v-856q0 -28 13 -47q12 -17 31 -17q18 0 30 19q12 18 12 45v330h190q120 0 189 94q58 77 58 195zM524 663q0 -96 -48 -146q-49 -48 -142 -48h-162v397h143q91 0 140 -34q69 -49 69 -169z" />
    <glyph glyph-name="Q" unicode="Q" horiz-adv-x="829" 
d="M800 67l-85 104q37 83 52 154t15 156q0 190 -90 336q-103 165 -282 165t-282 -161q-91 -139 -91 -329q0 -174 69 -304q51 -98 146 -161q80 -52 148 -52q83 0 149 33q65 27 108 89l86 -97q22 -25 36 -25q17 0 26 14q9 15 9 36q0 17 -14 42zM648 257l-67 74q-13 16 -29 16
q-19 0 -34 -16q-14 -14 -14 -34q0 -18 11 -30l86 -96q-34 -47 -71 -66q-49 -31 -120 -31q-115 0 -197 116q-80 115 -80 302q0 183 85 294q80 103 192 103q114 0 198 -111q83 -112 83 -279q0 -120 -43 -242z" />
    <glyph glyph-name="R" unicode="R" horiz-adv-x="629" 
d="M581 717q-12 149 -108 207q-60 38 -158 38h-172q-36 0 -51 -20q-16 -19 -16 -51v-850q0 -26 13 -42q15 -17 31 -17q15 0 30 17q12 17 12 42v387l342 -417q21 -29 44 -29q41 0 41 45q0 23 -19 47l-295 352l76 2q111 0 176 89q55 76 55 177q0 19 -1 23zM495 717
q0 -101 -40 -148q-42 -45 -130 -45h-163v342h163q76 0 123 -38q47 -35 47 -111z" />
    <glyph glyph-name="S" unicode="S" horiz-adv-x="563" 
d="M517 160q20 59 20 116q0 78 -33 144q-35 67 -104 104l-136 64q-139 68 -139 145q0 14 8 44q16 43 47 65q29 18 74 18t106 -19l23 -8q17 -7 27 -10q4 -3 12 -3q11 0 24 13q15 17 15 40q0 12 -7 20q-6 11 -17 17q-50 23 -85 33q-35 11 -76 11q-23 0 -78 -6l-15 -2
q-57 -7 -100 -73q-46 -66 -46 -145q0 -46 19 -94q17 -43 54 -76q39 -33 98 -59q32 -16 117 -49q61 -28 91 -78q28 -44 28 -105q0 -77 -45 -134q-47 -59 -113 -59q-51 0 -124 36q-34 11 -66 29q-13 6 -27 6q-24 0 -36 -17q-11 -10 -11 -32q0 -31 25 -42q26 -16 64 -31l11 -5
q83 -43 144 -43q86 0 160 56q60 54 91 129z" />
    <glyph glyph-name="T" unicode="T" horiz-adv-x="515" 
d="M468 866q22 0 31 14q10 13 10 32q0 22 -11 36q-10 14 -30 14h-431q-22 0 -30 -14q-11 -15 -11 -36q0 -19 11 -31q11 -15 30 -15h172v-810q0 -20 3 -32t10 -23q13 -21 31 -21q17 0 30 21q7 11 9.5 23t2.5 32v810h173z" />
    <glyph glyph-name="U" unicode="U" horiz-adv-x="810" 
d="M734 321v598q0 27 -15 40q-13 16 -33 16t-34 -16q-13 -13 -13 -40v-598q0 -119 -63 -182q-63 -65 -166 -65q-97 0 -166 63q-72 68 -72 184v598q0 28 -14 40q-14 16 -34 16t-34 -16q-14 -12 -14 -40v-598q0 -173 98 -262q89 -84 226 -84q139 0 231 84q103 88 103 262z" />
    <glyph glyph-name="V" unicode="V" horiz-adv-x="665" 
d="M645 920q3 5 3 15q0 23 -15 33q-10 15 -27 15q-27 0 -36 -37l-242 -819l-247 819q-3 13 -5.5 18.5t-8.5 9.5q-13 9 -24 9q-16 0 -27 -13q-5 -4 -9 -12.5t-4 -15.5q0 -6 2 -15q2 -6 2 -7l268 -856q11 -36 25 -55.5t31 -19.5q19 0 30 27q18 18 27 55z" />
    <glyph glyph-name="W" unicode="W" horiz-adv-x="982" 
d="M939 911v2q2 8 2 15q0 23 -12 33q-7 15 -23 15q-15 0 -26 -13q-12 -15 -17 -46l-122 -841l-211 859q-14 54 -41 54t-41 -54l-218 -860l-122 842q-5 28 -20 42q-9 17 -27 17q-12 0 -24 -10q-9 -14 -9 -37q0 -6 1 -12v-6l133 -863q2 -12 7 -20t14 -17q16 -20 41 -20
q27 0 40 23q22 19 28 50l196 798l201 -824q4 -23 17.5 -38.5t33.5 -15.5q26 0 42 26q12 11 19 22t10 29z" />
    <glyph glyph-name="X" unicode="X" horiz-adv-x="706" 
d="M686 65l-282 462l241 382q11 20 11 33q0 16 -12 25q-7 12 -23 12q-17 0 -30 -23l-225 -369l-228 370q-12 22 -30 22q-13 0 -24 -12q-9 -11 -9 -25q0 -8 6 -26q0 -2 2 -7l245 -382l-294 -462q-10 -26 -10 -44q0 -42 31 -42q24 0 36 29l274 433l264 -431q15 -31 37 -31
q16 0 27 13q12 12 12 29q0 22 -19 44z" />
    <glyph glyph-name="Y" unicode="Y" horiz-adv-x="569" 
d="M559 909q12 17 12 37q0 37 -32 37q-20 0 -35 -26l-216 -413l-217 413l-2 4q-8 12 -14 16q-7 6 -17 6q-27 0 -27 -41q0 -15 6 -33l235 -456v-403q0 -19 2 -31t7 -28q11 -19 25 -19q36 0 36 78v403z" />
    <glyph glyph-name="Z" unicode="Z" horiz-adv-x="665" 
d="M589 868q15 26 15 49q0 22 -16 34q-15 14 -49 14h-452q-16 0 -26 -10q-9 -16 -9 -34q0 -12 9 -25q12 -12 26 -12h413l-452 -781l-2 -6q-11 -31 -11 -46q0 -16 10 -34q16 -20 37 -20h503q14 0 26 16l1 1q9 16 9 28q0 18 -11 27q-10 16 -25 16h-453z" />
    <glyph glyph-name="bracketleft" unicode="[" horiz-adv-x="295" 
d="M278 -60q0 28 -13 35q-10 15 -33 15h-41v852h41q17 0 33 14q13 13 13 37q0 22 -13 35q-14 14 -33 14h-83q-57 0 -57 -63v-924q0 -26 14 -46q15 -18 43 -18h83q20 0 33 15q13 14 13 34z" />
    <glyph glyph-name="backslash" unicode="\" horiz-adv-x="499" 
d="M448 41l-315 858q-8 26 -22 38q-14 11 -28 11q-16 0 -27 -11t-11 -32v-7q0 -7 1 -12l316 -856q7 -23 22 -38q3 -1 6 -3q15 -8 23 -8q10 0 24 9l3 2q11 12 11 33q0 4 -3 16z" />
    <glyph glyph-name="bracketright" unicode="]" horiz-adv-x="295" 
d="M200 -45v924q0 26 -14 45q-14 18 -43 18h-84q-19 0 -33 -14q-13 -15 -13 -35q0 -22 13 -37q16 -14 33 -14h41v-852h-41q-23 0 -33 -15q-13 -8 -13 -35q0 -18 13 -34q14 -15 33 -15h84q57 0 57 64z" />
    <glyph glyph-name="asciicircum" unicode="^" horiz-adv-x="605" 
d="M478 450l-139 243q-12 23 -39 23q-28 0 -40 -23l-143 -238q-8 -18 -8 -29q0 -32 29 -32q13 0 27 10q13 9 22 27l111 183l109 -188q10 -21 22 -29q12 -9 27 -9q14 0 22 8t8 23t-8 31z" />
    <glyph glyph-name="underscore" unicode="_" horiz-adv-x="510" 
d="M488 -126q18 0 27 9q8 9 8 22q0 32 -35 32h-480q-16 0 -26 -10q-9 -9 -9 -22q0 -12 9 -22q10 -9 26 -9h480z" />
    <glyph glyph-name="grave" unicode="`" horiz-adv-x="198" 
d="M38 661l83 -126q6 -8 19 -8q14 0 24 7q8 4 8 12q0 1 -1 3v2l-55 134q-6 16 -15 22t-20 6q-17 0 -32 -13q-14 -14 -14 -29q0 -5 3 -10z" />
    <glyph glyph-name="a" unicode="a" horiz-adv-x="451" 
d="M405 29v374q0 17 -11 25q-9 9 -23 9t-22 -9q-12 -7 -12 -25l-1 -24q-27 30 -54 45q-29 13 -63 13q-87 0 -141 -66q-49 -64 -49 -155q0 -89 49 -153q53 -68 141 -68q72 0 118 66v-32q0 -15 13 -26q7 -8 21 -8t23 10q11 8 11 24zM337 216q0 -65 -26 -107q-33 -52 -92 -52
q-62 0 -93 52q-26 40 -26 107q0 64 26 107q33 52 93 52t93 -52q25 -39 25 -107z" />
    <glyph glyph-name="b" unicode="b" horiz-adv-x="451" 
d="M424 216q0 90 -50 155q-52 66 -135 66q-37 0 -73 -19q-27 -15 -44 -40v552q0 17 -9 29q-13 9 -27 9q-36 0 -36 -38v-897q0 -20 10 -27q8 -11 26 -11q36 0 36 38l2 21q30 -59 115 -59q84 0 136 68q49 64 49 153zM352 216q0 -63 -27 -107q-31 -52 -92 -52t-92 52
q-26 40 -26 107q0 65 27 107q30 52 91 52q62 0 93 -52q26 -43 26 -107z" />
    <glyph glyph-name="c" unicode="c" horiz-adv-x="361" 
d="M339 383q0 22 -31 39q-35 15 -84 15q-93 0 -147 -66q-48 -61 -48 -155q0 -93 48 -153q52 -68 147 -68q50 0 82 17q31 18 31 39q0 13 -7 22q-9 9 -20 9q-8 0 -33 -13q-29 -12 -53 -12q-62 0 -96 52q-28 43 -28 107q0 66 28 107q34 52 96 52q28 0 59 -16q14 -7 28 -7
q11 0 21 10v1q7 11 7 20z" />
    <glyph glyph-name="d" unicode="d" horiz-adv-x="451" 
d="M402 36v902q0 16 -11 29q-8 11 -25 11q-16 0 -27 -11q-9 -12 -9 -29l-1 -560q-21 28 -44 41q-36 18 -72 18q-84 0 -136 -66q-48 -64 -48 -155q0 -89 49 -153q50 -68 135 -68q84 0 117 59v-21q0 -19 9 -27q10 -11 27 -11q18 0 25 12q11 11 11 29zM337 216q0 -65 -26 -107
q-33 -52 -92 -52q-62 0 -93 52q-26 40 -26 107q0 64 26 107q33 52 93 52t93 -52q25 -41 25 -107z" />
    <glyph glyph-name="e" unicode="e" horiz-adv-x="423" 
d="M402 226q0 86 -50 145q-52 66 -136 66q-88 0 -144 -66q-51 -63 -51 -155q0 -94 47 -153q53 -68 151 -68q46 0 95 19q46 21 67 46q7 6 9 15q4 10 4 14q0 11 -8 19q-11 8 -19 8q-9 -5 -26 -16q-25 -16 -41 -25q-36 -18 -80 -18q-58 0 -94 37q-33 38 -33 95h259q32 0 39 8
q11 9 11 29zM330 242h-237q0 57 28 92q32 41 95 41q53 0 86 -43q28 -40 28 -90z" />
    <glyph glyph-name="f" unicode="f" horiz-adv-x="237" 
d="M227 945q0 15 -8 22q-11 8 -32 8q-6 3 -15 3q-34 0 -63 -22q-40 -28 -40 -75v-449h-28q-36 0 -36 -30q0 -31 36 -31h28v-338q0 -19 11 -27q8 -11 25 -11q37 0 37 38v338h44q36 0 36 31q0 30 -36 30h-44v453q0 28 29 28h1h9q14 0 32 6q14 7 14 26z" />
    <glyph glyph-name="g" unicode="g" horiz-adv-x="451" 
d="M396 30v373q0 18 -12 25q-7 9 -21 9q-16 0 -28 -9q-11 -7 -11 -25l-1 -20q-16 19 -48 38q-32 16 -62 16q-87 0 -141 -66q-49 -64 -49 -155q0 -89 49 -153q53 -68 141 -68q32 0 64 16q27 17 47 46v-37q0 -53 -26 -87q-31 -39 -92 -39q-46 0 -88 24q-40 26 -54 26t-22 -10
q-7 -12 -7 -23q0 -27 54 -54q53 -25 112 -25q90 0 142 51q53 53 53 147zM331 216q0 -65 -26 -107q-33 -52 -92 -52q-62 0 -93 52q-26 40 -26 107q0 64 26 107q33 52 93 52t93 -52q25 -41 25 -107z" />
    <glyph glyph-name="h" unicode="h" horiz-adv-x="437" 
d="M390 33v240q0 82 -52 129q-40 35 -100 35q-32 0 -66 -13q-31 -16 -54 -44v560q0 19 -9 29q-11 9 -26 9q-36 0 -36 -38v-907q0 -20 10 -27q8 -11 26 -11q35 0 35 38v236q0 42 33 75q31 31 68 31q40 0 68 -24q31 -28 31 -82v-236q0 -20 10 -27q8 -11 25 -11q37 0 37 38z
" />
    <glyph glyph-name="i" unicode="i" horiz-adv-x="166" 
d="M126 540q0 19 -12 30q-12 13 -31 13q-20 0 -32 -13q-12 -14 -12 -30q0 -18 12 -32q14 -12 32 -12t31 12q12 11 12 32zM118 33v366q0 19 -9 28q-10 10 -26 10q-36 0 -36 -38v-366q0 -20 10 -27q8 -11 26 -11q35 0 35 38z" />
    <glyph glyph-name="j" unicode="j" horiz-adv-x="166" 
d="M126 540q0 19 -12 30q-12 13 -31 13q-20 0 -32 -13q-12 -14 -12 -30q0 -18 12 -32q14 -12 32 -12t31 12q12 11 12 32zM118 -137v536q0 19 -9 28q-10 10 -26 10q-36 0 -36 -38v-536q0 -19 10 -28q9 -10 26 -10q35 0 35 38z" />
    <glyph glyph-name="k" unicode="k" horiz-adv-x="376" 
d="M360 5q2 2 2 3q3 4 4 6q5 8 5 14q0 15 -18 33l-189 185l153 124q22 15 22 35q0 9 -7 19q-10 8 -19 8q-20 0 -38 -17l-157 -131v651q0 19 -9 31q-10 12 -26 12t-26 -13t-10 -31v-897q0 -20 10 -30q10 -13 26 -13q17 0 25 14q10 9 10 29v168l180 -189q25 -22 39 -22
q10 0 23 11z" />
    <glyph glyph-name="l" unicode="l" horiz-adv-x="166" 
d="M118 33v907q0 19 -9 29q-11 9 -26 9q-36 0 -36 -38v-907q0 -20 10 -27q8 -11 26 -11q35 0 35 38z" />
    <glyph glyph-name="m" unicode="m" horiz-adv-x="677" 
d="M630 33v240q0 83 -50 129q-41 35 -100 35q-42 0 -77 -19q-29 -16 -55 -54q-22 38 -57 58q-30 15 -64 15q-40 0 -73 -18q-18 -15 -36 -34v2q0 31 -8 40q-8 10 -27 10q-36 0 -36 -38v-366q0 -20 10 -27q8 -11 26 -11q35 0 35 38v243q0 41 25 71q25 28 67 28q44 0 69 -26
q24 -27 24 -73v-243q0 -20 10 -27q7 -11 25 -11q36 0 36 38v243q0 41 26 70q23 29 66 29q45 0 68 -26q25 -26 25 -73v-243q0 -20 10 -27q7 -11 26 -11q35 0 35 38z" />
    <glyph glyph-name="n" unicode="n" horiz-adv-x="437" 
d="M390 33v240q0 82 -52 129q-40 35 -100 35q-32 0 -66 -13q-31 -16 -54 -44v2q0 55 -35 55q-36 0 -36 -38v-366q0 -20 10 -27q8 -11 26 -11q35 0 35 38v236q0 42 33 75q31 31 68 31q40 0 68 -24q31 -28 31 -82v-236q0 -20 10 -27q8 -11 25 -11q37 0 37 38z" />
    <glyph glyph-name="o" unicode="o" horiz-adv-x="437" 
d="M409 216q0 88 -50 155q-55 66 -140 66q-87 0 -141 -66q-49 -64 -49 -155q0 -89 49 -153q53 -68 141 -68q89 0 141 68q49 63 49 153zM337 216q0 -65 -26 -107q-33 -52 -92 -52q-62 0 -93 52q-26 40 -26 107q0 64 26 107q33 52 93 52t93 -52q25 -41 25 -107z" />
    <glyph glyph-name="p" unicode="p" horiz-adv-x="451" 
d="M424 216q0 91 -51 155q-52 66 -135 66q-84 0 -116 -59q0 40 -11 51q-7 8 -25 8q-36 0 -36 -38v-536q0 -19 10 -28q9 -10 26 -10q36 0 36 38v190l8 -6q22 -18 29 -22q45 -30 80 -30q84 0 136 68q49 64 49 153zM352 216q0 -63 -27 -107q-31 -52 -92 -52t-92 52
q-26 40 -26 107q0 65 27 107q30 52 91 52q62 0 93 -52q26 -43 26 -107z" />
    <glyph glyph-name="q" unicode="q" horiz-adv-x="451" 
d="M402 -137v536q0 17 -11 28q-8 10 -25 10t-28 -12q-8 -14 -8 -47q-9 34 -52 49q-27 10 -65 10q-84 0 -136 -66q-48 -64 -48 -155q0 -89 49 -153q50 -68 135 -68q36 0 72 19q27 18 45 39v-190q0 -19 9 -28q10 -10 27 -10q36 0 36 38zM337 216q0 -65 -26 -107
q-33 -52 -92 -52q-62 0 -93 52q-26 40 -26 107q0 64 26 107q33 52 93 52t93 -52q25 -41 25 -107z" />
    <glyph glyph-name="r" unicode="r" horiz-adv-x="273" 
d="M257 401q0 15 -17 25q-19 11 -37 11q-26 0 -51 -26q-12 -12 -34 -49v37q0 19 -9 28q-10 10 -26 10q-36 0 -36 -38v-366q0 -20 10 -27q8 -11 26 -11q35 0 35 38v206q0 60 26 91q23 26 69 32q20 0 33 10q11 12 11 29z" />
    <glyph glyph-name="s" unicode="s" horiz-adv-x="361" 
d="M329 361q0 32 -49 53q-46 23 -96 23t-91 -26q-41 -24 -52 -68q0 -1 -1 -3l-3 -6v-13q0 -48 38 -77q15 -12 122 -61q71 -32 71 -67q0 -24 -24 -42q-23 -17 -60 -17q-43 0 -84 26q-40 27 -52 27t-20 -10t-8 -22q0 -31 47 -56q50 -27 115 -27q37 0 70 13q30 8 53 33
q32 31 32 83q0 18 -7 39q-6 17 -21 34q-26 23 -92 49q-108 44 -108 75q0 25 21 41q20 13 54 13t58 -14q51 -29 54 -29q17 0 24 7q9 9 9 22z" />
    <glyph glyph-name="t" unicode="t" horiz-adv-x="224" 
d="M207 402q0 30 -36 30h-29v93q0 18 -10 28q-10 11 -27 11q-36 0 -36 -39v-93h-28q-36 0 -36 -30q0 -31 36 -31h28v-338q0 -19 11 -27q8 -11 25 -11q37 0 37 38v338h29q36 0 36 31z" />
    <glyph glyph-name="u" unicode="u" horiz-adv-x="437" 
d="M390 167v232q0 19 -9 28q-12 10 -28 10q-35 0 -35 -38v-232q0 -110 -99 -110q-101 0 -101 110v232q0 19 -9 28q-10 10 -26 10q-36 0 -36 -38v-232q0 -87 53 -134q48 -38 119 -38t118 39q53 45 53 133z" />
    <glyph glyph-name="v" unicode="v" horiz-adv-x="357" 
d="M334 374q2 6 4 10q2 6 2 7q1 3 1 15q0 20 -19 28q-7 3 -14 3q-29 0 -36 -28l-100 -297l-98 297q-10 28 -39 28q-4 0 -10 -1l-3 -1q-17 -8 -17 -28q0 -8 4 -25l2 -8l125 -347q4 -17 13 -25q7 -7 24 -7q20 0 29 13q5 5 8 19z" />
    <glyph glyph-name="w" unicode="w" horiz-adv-x="614" 
d="M596 378q3 8 3 15q2 10 2 13q0 19 -16 26q-3 2 -9 3q-4 2 -10 2q-11 0 -22 -9q-8 -5 -17 -28l-93 -295l-91 284q-1 3 -1 4q-10 28 -15 34q-8 10 -26 10t-25 -10q-9 -11 -17 -38l-92 -285l-92 296q-10 26 -20 32q-9 6 -19 6h-3q-3 -1 -4 -1q-18 0 -22 -8q-7 -6 -7 -19
q0 -5 2 -15q1 -3 4 -11q2 -5 2 -6l118 -346q8 -20 17 -28q9 -9 24 -9q29 0 41 37l94 292l92 -292q6 -15 16 -28q11 -9 25 -9q28 0 42 37z" />
    <glyph glyph-name="x" unicode="x" horiz-adv-x="377" 
d="M363 5q9 7 9 21q0 16 -15 36l-128 167l112 147q5 6 11 15q2 10 2 16q0 14 -8 21q-10 9 -21 9q-20 0 -31 -16l-106 -140l-105 139q-7 8 -15 13q-5 4 -17 4t-21 -10q-1 -1 -3 -6l-2 -4q-3 -6 -3 -10q0 -11 13 -31l112 -148l-127 -166q-16 -24 -16 -34q0 -9 7 -20
q10 -13 26 -13q21 0 31 16l121 166l119 -166q11 -16 30 -16q15 0 25 10z" />
    <glyph glyph-name="y" unicode="y" horiz-adv-x="361" 
d="M350 400q2 6 2 10q0 12 -11 18q-10 9 -27 9q-26 0 -34 -27l-99 -297l-99 296q-5 14 -15 20q-8 8 -21 8q-15 0 -25 -16q-6 -12 -6 -20l1 -3v-4l128 -379l-44 -120q-4 -9 -7 -20q-4 -9 -4 -20q0 -14 11 -22q10 -8 22 -8q14 0 26 18t16 31z" />
    <glyph glyph-name="z" unicode="z" horiz-adv-x="361" 
d="M345 30q0 32 -36 32h-194l-3 2l209 307q10 14 12 19q1 4 2 9q1 6 1 8q0 13 -9 19q-14 6 -33 6h-233q-36 0 -36 -30q0 -31 36 -31h177l-208 -309q-2 -5 -7 -14q-2 -4 -4 -7v-1q-5 -12 -5 -17q0 -11 11 -17q6 -6 31 -6h253q36 0 36 30z" />
    <glyph glyph-name="braceleft" unicode="{" horiz-adv-x="318" 
d="M276 -71q15 0 27 7q9 12 9 28q0 11 -9 26q-12 10 -27 10q-39 0 -56 11q-20 23 -20 83v166q0 63 -26 110q-22 45 -68 66q55 32 79 98q15 44 15 83v178q0 47 20 65q15 5 56 5q36 0 36 37q0 15 -9 27q-9 10 -27 10q-96 0 -121 -12q-42 -23 -42 -91v-238q0 -53 -23 -88
t-53 -35q-16 0 -25 -11q-10 -12 -10 -24q0 -36 35 -36q33 0 58 -43q10 -20 14 -39t4 -43v-227q0 -84 43 -112q28 -11 120 -11z" />
    <glyph glyph-name="bar" unicode="|" horiz-adv-x="264" 
d="M174 -46v975q0 22 -12 35q-13 13 -30 13q-18 0 -31 -13t-13 -35v-975q0 -20 13 -34q14 -15 31 -15t30 15q12 15 12 34z" />
    <glyph glyph-name="braceright" unicode="}" horiz-adv-x="318" 
d="M276 404q18 0 27 10q9 9 9 26q0 15 -9 25q-12 10 -27 10q-28 0 -52 40q-24 39 -24 84v218q0 93 -42 118q-23 13 -121 13q-12 0 -20 -9q-7 -11 -7 -27q0 -13 7 -24t20 -11q49 0 63 -13q13 -12 13 -68v-177q0 -55 28 -108q29 -51 68 -66q-39 -23 -67 -84q-29 -64 -29 -114
v-183q0 -53 -26 -60q-9 -4 -50 -4q-11 0 -20 -11q-7 -15 -7 -25q0 -17 7 -28q9 -7 20 -7q100 0 125 14q38 29 38 121v196q0 50 21 98q26 46 55 46z" />
    <glyph glyph-name="asciitilde" unicode="~" horiz-adv-x="607" 
d="M536 296q0 11 -10 20t-25 9q-21 0 -61 -47q-18 -21 -37 -21q-6 0 -116 47q-49 21 -93 21q-48 0 -89 -36t-41 -79q0 -11 10 -20t25 -9q21 0 61 47q18 21 37 21q6 0 116 -47q49 -21 93 -21q48 0 89 36t41 79z" />
    <glyph glyph-name="c127" horiz-adv-x="881" 
 />
    <glyph glyph-name="c128" horiz-adv-x="800" 
d="M50 0h700v800h-700v-800zM700 50h-600v700h600v-700z" />
    <glyph glyph-name="c129" horiz-adv-x="800" 
d="M50 0h700v800h-700v-800zM700 50h-600v700h600v-700z" />
    <glyph glyph-name="quotesinglbase" unicode="&#x201a;" horiz-adv-x="205" 
d="M167 46q3 5 3 10q0 15 -14 29q-15 13 -32 13q-11 0 -20 -6t-15 -22l-55 -134v-3l-1 -2q0 -8 8 -12q10 -7 24 -7q13 0 19 8z" />
    <glyph glyph-name="florin" unicode="&#x192;" horiz-adv-x="352" 
d="M324 722q0 18 -11 28t-39 10q-6 4 -18 4q-41 0 -78 -26q-48 -34 -48 -93v-233h-36q-44 0 -44 -38t44 -38h36v-308q0 -37 -36 -37h-2h-11q-22 0 -39 -8q-18 -8 -18 -30q0 -16 29 -27t57 -11q26 0 32 9l4 -1q19 0 44 39q28 43 28 67v307h55q44 0 44 38t-44 38h-55v237
q0 35 36 35h2h11q22 0 40 8q17 7 17 30z" />
    <glyph glyph-name="quotedblbase" unicode="&#x201e;" horiz-adv-x="370" 
d="M303 56q3 5 3 10q0 15 -14 28t-31 13q-18 0 -28 -19l-63 -134v-3q-1 -3 -1 -5q0 -8 4 -15q7 -13 19 -13q5 0 14 5q8 6 14 15zM177 55q3 5 3 10q0 15 -14 29q-14 13 -31 13q-18 0 -28 -20l-63 -134v-3q-1 -3 -1 -5q0 -7 4 -15q7 -12 19 -12q5 0 14 5q8 5 14 14z" />
    <glyph glyph-name="ellipsis" unicode="&#x2026;" horiz-adv-x="1000" 
d="M884 46q0 21 -15 36t-36 15t-36 -15t-15 -36t15 -36t36 -15t36 15t15 36zM551 46q0 21 -15 36t-36 15t-36 -15t-15 -36t15 -36t36 -15t36 15t15 36zM218 46q0 21 -15 36t-36 15t-36 -15t-15 -36t15 -36t36 -15t36 15t15 36z" />
    <glyph glyph-name="dagger" unicode="&#x2020;" horiz-adv-x="606" 
d="M551 378q18 0 27 10q8 10 8 25t-9 26q-10 10 -26 10h-205v228q0 16 -10 26q-11 9 -25 9t-24 -9q-11 -10 -11 -26v-228h-205q-17 0 -26 -11t-9 -25t10 -24q9 -11 25 -11h205v-568q0 -18 10 -27q10 -8 25 -8t25 9t10 26v568h205z" />
    <glyph glyph-name="daggerdbl" unicode="&#x2021;" horiz-adv-x="606" 
d="M551 16q18 0 27 10q8 10 8 25t-9 26q-10 10 -26 10h-205v323h205q18 0 27 10q8 10 8 25t-9 26q-10 10 -26 10h-205v204q0 16 -10 26q-11 9 -25 9t-24 -9q-11 -10 -11 -26v-204h-213q-17 0 -26 -11t-9 -25t10 -24q9 -11 25 -11h213v-323h-213q-17 0 -26 -11t-9 -25t10 -24
q9 -11 25 -11h213v-213q0 -18 10 -27q10 -8 25 -8t25 9t10 26v213h205z" />
    <glyph glyph-name="circumflex" unicode="&#x2c6;" horiz-adv-x="260" 
d="M236 637l-69 127q-3 5 -14 8t-23 3q-30 0 -38 -11l-71 -119q-3 -6 -3 -13q0 -13 12 -24q11 -12 23 -12q13 0 18 11l56 92l53 -95q7 -11 20 -11q14 0 27 10q12 10 12 23q0 5 -3 11z" />
    <glyph glyph-name="perthousand" unicode="&#x2030;" horiz-adv-x="1105" 
d="M1054 171q0 82 -45 132t-113 50q-78 0 -120 -56q-37 -49 -37 -126q0 -71 44 -122t113 -51q68 0 113 46t45 127zM991 179q0 -71 -30 -102q-23 -24 -65 -24q-41 0 -67 35q-27 34 -27 83q0 55 25 91q24 35 69 35q39 0 65 -27q30 -31 30 -91zM339 563q0 81 -45 131
q-46 50 -112 50q-79 0 -121 -55q-37 -48 -37 -126q0 -72 44 -122q44 -51 114 -51q68 0 113 47q44 46 44 126zM276 571q0 -71 -29 -102q-23 -24 -65 -24q-41 0 -68 35t-27 83q0 56 25 91q24 35 70 35q39 0 67 -29q27 -29 27 -89zM519 697q6 13 6 21q0 14 -9 23q-10 8 -22 8
q-27 0 -37 -28l-259 -670q-5 -10 -5 -23q0 -32 24 -32q13 0 24 12q11 11 18 36zM694 177q0 82 -45 132t-113 50q-78 0 -120 -56q-37 -49 -37 -126q0 -71 44 -122t113 -51q68 0 113 46t45 127zM631 185q0 -71 -30 -102q-23 -24 -65 -24q-41 0 -67 35q-27 34 -27 83
q0 55 25 91q24 35 69 35q39 0 65 -27q30 -31 30 -91z" />
    <glyph glyph-name="Scaron" unicode="&#x160;" horiz-adv-x="563" 
d="M383 1166q3 8 3 13q0 19 -15 32q-14 11 -32 11q-16 0 -24 -15l-64 -125l-68 122q-7 16 -22 16t-28 -16q-7 -5 -10.5 -13.5t-3.5 -16.5q0 -11 3 -20l86 -154q7 -15 46 -15q38 0 45 15zM510 173q21 50 21 114q0 76 -34 138q-34 66 -102 101q-61 25 -138 62
q-137 66 -137 141q0 24 8 41q14 43 46 64q38 18 75 18q36 0 104 -20l13 -5l38 -13h5l5 -1q16 0 25 12q16 16 16 38q0 11 -6 20q-7 11 -18 16l-31 13q-40 16 -53 20q-35 8 -77 8q-49 0 -94 -5q-55 -8 -100 -71q-44 -63 -44 -141q0 -48 18 -90q17 -43 53 -73q34 -30 99 -57
q41 -20 116 -48q60 -25 92 -77q28 -44 28 -101q0 -72 -45 -129q-42 -55 -114 -55q-44 0 -123 32q-13 3 -49 20l-18 8q-11 6 -26 6q-24 0 -35 -13q-13 -18 -13 -35q0 -32 26 -41q22 -10 54 -26l22 -11q83 -34 144 -34q87 0 159 53q60 43 90 121z" />
    <glyph glyph-name="guilsinglleft" unicode="&#x2039;" horiz-adv-x="236" 
d="M204 109l-94 150l95 149q5 10 5 20q0 15 -11 24q-12 9 -25 9q-16 0 -24 -12l-95 -158q-12 -18 -12 -31q0 -14 12 -32l95 -157q6 -13 21 -13t27 10q12 9 12 24q0 9 -6 17z" />
    <glyph glyph-name="OE" unicode="&#x152;" horiz-adv-x="992" 
d="M558 919q-80 47 -178 47q-177 0 -274 -146q-89 -126 -89 -329q0 -215 108 -350q106 -123 252 -123q35 0 95 10q47 12 80 36q4 -25 16.5 -35.5t35.5 -10.5h302q22 0 38 11q13 13 13 36q0 19 -12 34q-12 12 -37 12h-270v344h257q22 0 32 13q12 14 12 31q0 21 -12 34
q-9 13 -32 13h-257v310h267q21 0 32 13q11 14 11 33q0 21 -11 35q-10 11 -32 11h-299q-35 0 -48 -29zM552 178q-35 -33 -76 -51q-35 -18 -96 -18q-133 0 -206 123q-62 104 -62 259q0 143 49 247q68 135 219 135q100 0 172 -72v-623z" />
    <glyph glyph-name="c141" horiz-adv-x="800" 
d="M50 0h700v800h-700v-800zM700 50h-600v700h600v-700z" />
    <glyph glyph-name="c142" horiz-adv-x="800" 
d="M50 0h700v800h-700v-800zM700 50h-600v700h600v-700z" />
    <glyph glyph-name="c143" horiz-adv-x="800" 
d="M50 0h700v800h-700v-800zM700 50h-600v700h600v-700z" />
    <glyph glyph-name="c144" horiz-adv-x="800" 
d="M50 0h700v800h-700v-800zM700 50h-600v700h600v-700z" />
    <glyph glyph-name="quoteleft" unicode="&#x2018;" horiz-adv-x="189" 
d="M165 661q3 3 3 10t-5 15q-9 13 -24 13q-16 0 -30 -21l-78 -119q-2 -3 -2 -9q0 -15 14 -27q14 -13 31 -13q18 0 28 18z" />
    <glyph glyph-name="quoteright" unicode="&#x2019;" horiz-adv-x="189" 
d="M157 661q3 5 3 10q0 15 -14 29q-15 13 -32 13q-11 0 -20 -6t-15 -22l-55 -134v-2q-1 -2 -1 -3q0 -8 8 -12q10 -7 24 -7q13 0 19 8z" />
    <glyph glyph-name="quotedblleft" unicode="&#x201c;" horiz-adv-x="315" 
d="M291 669q2 6 2 9q0 11 -6 20q-7 8 -18 8q-8 0 -17 -6q-10 -7 -19 -22l-76 -119q-3 -3 -3 -8q0 -9 14 -19q19 -14 40 -14q16 0 20 10zM165 668q2 6 2 9q0 12 -6 21q-7 8 -18 8q-8 0 -17 -7q-10 -7 -19 -22l-76 -119q-3 -3 -3 -8q0 -8 14 -18q19 -14 40 -14q16 0 20 9z" />
    <glyph glyph-name="quotedblright" unicode="&#x201d;" horiz-adv-x="315" 
d="M283 661q3 5 3 10q0 15 -14 28t-31 13q-18 0 -28 -19l-63 -134v-3q-1 -3 -1 -5q0 -7 4 -15q7 -13 19 -13q5 0 14 6q8 5 14 14zM157 660q3 5 3 10q0 15 -14 29q-14 13 -31 13q-18 0 -28 -20l-63 -134v-3q-1 -3 -1 -5q0 -7 4 -14q7 -13 19 -13q5 0 14 5q8 5 14 14z" />
    <glyph glyph-name="bullet" unicode="&#x2022;" horiz-adv-x="470" 
d="M423 357q0 73 -54 123t-129 50q-73 0 -123 -54t-50 -129q0 -73 55 -122q54 -50 128 -50t124 54q49 53 49 128z" />
    <glyph glyph-name="endash" unicode="&#x2013;" horiz-adv-x="525" 
d="M465 228q18 0 27 10q8 10 8 25t-9 26q-10 10 -26 10h-434q-17 0 -26 -11t-9 -25t10 -24q9 -11 25 -11h434z" />
    <glyph glyph-name="emdash" unicode="&#x2014;" horiz-adv-x="1075" 
d="M1008 228q18 0 27 10q8 10 8 25t-9 26q-10 10 -26 10h-1000q-17 0 -26 -11t-9 -25t9 -24q10 -11 26 -11h1000z" />
    <glyph glyph-name="tilde" unicode="&#x2dc;" horiz-adv-x="408" 
d="M369 699q0 8 -7 14t-17 6q-18 0 -36 -23q-19 -24 -33 -24q-4 0 -82 33q-33 14 -64 14q-33 0 -62 -25t-29 -55q0 -8 7 -14t17 -6q18 0 37 24q18 23 32 23t62 -23q48 -24 84 -24q33 0 62 25t29 55z" />
    <glyph glyph-name="trademark" unicode="&#x2122;" horiz-adv-x="992" 
d="M929 323v338q0 25 -17 40q-18 15 -41 15q-19 0 -36 -12t-25 -35l-109 -276l-103 276q-8 24 -25 36q-17 11 -38 11q-22 0 -38 -13q-17 -14 -17 -34v-346q0 -18 11 -26q10 -9 25 -9q14 0 25 10q10 9 10 25v299l117 -299q12 -35 37 -35q23 0 35 35l118 299v-299
q0 -18 11 -26q10 -9 25 -9q14 0 25 10q10 9 10 25zM362 646q18 0 27 9q8 9 8 22q0 32 -35 32h-260q-16 0 -25 -9q-10 -10 -10 -23q0 -12 10 -21q9 -10 25 -10h95v-323q0 -18 11 -26q10 -9 25 -9q14 0 25 10q10 9 10 25v323h94z" />
    <glyph glyph-name="scaron" unicode="&#x161;" horiz-adv-x="362" 
d="M280 581q3 6 3 10q0 11 -10 18q-10 9 -22 9q-11 0 -16 -10l-44 -78l-45 75q-5 10 -15 10t-19 -10q-9 -8 -9 -19q0 -3 2 -9v-2l58 -96q4 -10 31 -10q24 0 30 10zM333 370q0 31 -49 55q-49 22 -96 22q-49 0 -92 -26q-43 -25 -52 -69q-2 -4 -3 -9v-12q0 -48 37 -78
q19 -15 122 -61q71 -30 71 -68q0 -22 -23 -42q-25 -17 -60 -17q-46 0 -85 27q-41 26 -52 26q-12 0 -21 -9q-7 -10 -7 -23q0 -31 47 -57q44 -25 115 -25q34 0 70 11q36 15 54 33q31 31 31 84q0 14 -6 40q-7 20 -21 33q-27 24 -93 50q-108 41 -108 76q0 25 21 40q22 14 55 14
q32 0 57 -15q25 -13 48 -27l6 -3q15 0 24 10q10 5 10 20z" />
    <glyph glyph-name="guilsinglright" unicode="&#x203a;" horiz-adv-x="236" 
d="M189 228q12 18 12 32q0 13 -12 31l-95 158q-10 16 -26 16q-13 0 -24 -11q-11 -12 -11 -26q0 -9 5 -20l95 -149l-94 -150q-5 -12 -5 -19q0 -14 12 -22q11 -8 24 -8q17 0 24 11z" />
    <glyph glyph-name="oe" unicode="&#x153;" horiz-adv-x="730" 
d="M367 352q-25 45 -66 69q-40 26 -94 26q-89 0 -142 -68q-49 -62 -49 -154q0 -94 50 -154q55 -67 141 -67q55 0 91 23q42 28 64 64q23 -41 66 -67q46 -26 102 -26q42 0 94 20q41 15 69 45l4 8l4 8q4 5 4 14q0 11 -10 19q-7 8 -18 8q-16 -11 -44 -28l-22 -14
q-33 -17 -81 -17q-59 0 -93 37t-34 95h258q27 0 41 8q11 10 11 31q0 79 -51 144q-52 67 -137 67q-49 0 -93 -25q-40 -24 -65 -66zM326 225q0 -65 -27 -107q-31 -53 -92 -53t-93 53q-26 43 -26 107q0 62 27 108q31 52 92 52q62 0 93 -52q26 -46 26 -108zM641 247h-238
q0 59 28 91q32 43 94 43q58 0 87 -46q29 -35 29 -88z" />
    <glyph glyph-name="c157" horiz-adv-x="800" 
d="M50 0h700v800h-700v-800zM700 50h-600v700h600v-700z" />
    <glyph glyph-name="c158" horiz-adv-x="800" 
d="M50 0h700v800h-700v-800zM700 50h-600v700h600v-700z" />
    <glyph glyph-name="Ydieresis" unicode="&#x178;" horiz-adv-x="569" 
d="M559 898q7 11 9.5 18t2.5 17q0 36 -32 36q-20 0 -35 -24l-216 -399l-217 399q-3 4 -5 8q-6 8 -11 11q-6 5 -17 5q-27 0 -27 -39q0 -12 6 -32l235 -440v-393q0 -32 9 -46q12 -23 25 -23q18 0 27 18t9 51v393zM432 1052q7 11 7 29q0 31 -26 46q-12 12 -25 12q-14 0 -25 -8
t-21 -23q0 -4 -1 -11q-2 -11 -2 -16q0 -32 22 -53q1 0 9 -1q11 -2 18 -2q30 0 44 27zM249 1052q6 12 6 29q0 29 -25 46q-13 12 -30 12q-25 0 -45 -31q0 -4 -1 -11q-2 -11 -2 -16q0 -32 22 -53q3 0 9 -1q10 -2 17 -2q33 0 49 27z" />
    <glyph glyph-name="nbspace" unicode="&#xa0;" horiz-adv-x="500" 
 />
    <glyph glyph-name="exclamdown" unicode="&#xa1;" horiz-adv-x="276" 
d="M191 496q0 20 -15 35t-35 15t-35 -15t-15 -35q0 -21 15 -35t35 -14q21 0 36 15q14 14 14 34zM173 -150v457q0 16 -10 26q-11 9 -25 9q-15 0 -25 -9q-11 -10 -11 -26v-457q0 -18 11 -27q10 -8 25 -8q14 0 25 9q10 10 10 26z" />
    <glyph glyph-name="cent" unicode="&#xa2;" horiz-adv-x="441" 
d="M402 24q13 10 13 24q0 13 -9 24q-10 10 -23 10q-7 0 -13 -3q-4 -2 -17 -8q-16 -7 -21 -9q-20 -9 -39 -9q-6 0 -17 2v417q18 0 41 -6q22 -7 37 -16q15 -10 28 -10q15 0 25 11q9 10 9 24q0 18 -14 29q-24 18 -53 25q-29 6 -73 6v56q0 23 -20 23q-8 0 -14 -6q-6 -7 -6 -17
v-56q-71 0 -131 -73q-66 -81 -66 -202q0 -100 51 -179q57 -89 146 -89v-55q0 -12 6 -18q5 -5 14 -5q20 0 20 23v55q39 0 71 7q32 8 55 25zM236 53q-50 13 -84 69q-34 55 -34 136q0 83 35 142q34 59 83 72v-419z" />
    <glyph glyph-name="sterling" unicode="&#xa3;" horiz-adv-x="715" 
d="M657 712q-9 93 -78 156q-80 71 -207 71q-123 0 -186 -66q-56 -56 -56 -154q0 -100 60 -192h-104q-22 0 -31 -14q-11 -11 -11 -32q0 -19 11 -33q12 -12 31 -12h133q13 -48 13 -97q0 -76 -38 -140q-20 -30 -81 -94q-12 -14 -19 -32q-7 -11 -7 -28q0 -45 46 -45h506
q21 0 32 13q6 10 8 16.5t2 16.5q0 21 -11 33q-12 15 -31 15h-430q117 113 117 232q0 47 -21 110h133q21 0 32 11q11 16 11 34t-12 32q-10 14 -31 14h-152q-28 52 -41 88q-16 48 -16 77q0 80 42 119q35 35 101 35q86 0 131 -36q47 -40 68 -108q13 -53 48 -53q20 0 30 17
q9 12 9 32v7q-1 6 -1 7z" />
    <glyph glyph-name="currency" unicode="&#xa4;" horiz-adv-x="535" 
d="M512 543q7 7 7 18q0 15 -10 27t-24 12q-5 0 -10 -2t-10 -7l-48 -40q-71 53 -149 53q-77 0 -150 -53l-39 40q-10 8 -21 8q-14 0 -25 -9t-11 -23q0 -12 9 -24l32 -39q-46 -73 -46 -151q0 -84 54 -148l-40 -40q-10 -10 -10 -23q0 -14 10 -24t24 -10t24 10l39 39
q27 -26 66 -39q39 -14 84 -14q46 0 85 14q38 13 64 39l40 -39q7 -7 18 -7q15 0 27 11q11 10 11 23q0 5 -2 10t-7 10l-32 32q25 28 38 67q12 38 12 81q0 95 -50 159zM449 354q0 -88 -58 -138q-50 -43 -123 -43q-79 0 -132 58q-49 54 -49 123q0 75 57 128q56 53 124 53
q77 0 129 -52t52 -129z" />
    <glyph glyph-name="yen" unicode="&#xa5;" horiz-adv-x="648" 
d="M600 860q14 21 14 39t-13 31q-10 9 -31 9q-27 0 -36 -20l-209 -392l-212 392q-7 20 -36 20q-19 0 -31 -11q-12 -15 -12 -29q0 -19 13 -39l199 -355l-124 2q-21 0 -30 -12q-11 -16 -11 -30q0 -16 11 -27q11 -15 31 -15h163v-102h-163q-18 0 -31 -13q-11 -14 -11 -31
q0 -11 11 -28q11 -11 31 -11h163v-209q0 -19 12 -34q18 -14 31 -14q14 0 30 14q13 16 13 34v209h162q23 0 31 11q11 13 11 28q0 44 -42 44h-162v102h162q23 0 31 14q11 11 11 28q0 42 -44 42h-133z" />
    <glyph glyph-name="brokenbar" unicode="&#xa6;" horiz-adv-x="280" 
d="M96 282v-197q0 -20 11 -30q10 -11 25 -11q14 0 25 11q10 10 10 30v197q0 19 -10 30q-11 11 -25 11q-15 0 -25 -10q-11 -11 -11 -31zM85 595v-197q0 -20 11 -30q10 -10 25 -10q14 0 25 10q10 10 10 30v197q0 19 -10 30q-11 11 -25 11q-15 0 -25 -10q-11 -11 -11 -31z" />
    <glyph glyph-name="section" unicode="&#xa7;" horiz-adv-x="677" 
d="M591 723q0 92 -57 150q-60 66 -172 66q-125 0 -196 -64q-66 -58 -66 -140q0 -101 90 -157q-67 -23 -111 -86q-42 -62 -42 -128q0 -41 15 -79q13 -34 44 -70q50 -55 137 -106q95 -60 215 -120q34 -25 34 -75q0 -47 -33 -77q-36 -35 -115 -35q-74 0 -119 33t-53 94
q-2 19 -16 33q-12 11 -30 11q-20 0 -30 -14q-12 -17 -12 -45v-14l1 -3q1 -7 1 -10q7 -76 68 -123q65 -52 190 -52q117 0 183 57q62 56 62 140q0 93 -74 161q67 48 97 106q34 65 34 128q0 100 -73 158q-54 43 -109 75q-3 2 -18 10q-72 41 -131 70q-53 28 -84 63
q-26 31 -26 59q0 46 47 75q45 32 92 32q58 0 104 -28q53 -31 67 -95q2 -21 16 -36q15 -10 31 -10q39 0 39 46zM458 423q43 -22 63 -55q20 -30 20 -69q0 -47 -34 -103q-35 -53 -79 -83l-228 134q-39 25 -53 52q-17 31 -17 68q0 56 39 98q37 46 107 62z" />
    <glyph glyph-name="dieresis" unicode="&#xa8;" horiz-adv-x="368" 
d="M287 655q6 11 6 24q0 28 -24 42q-11 6 -24 6q-28 0 -42 -24q-6 -11 -6 -24q0 -28 24 -42q11 -6 24 -6q28 0 42 24zM135 655q6 11 6 24q0 28 -24 42q-11 6 -24 6q-28 0 -42 -24q-6 -11 -6 -24q0 -28 24 -42q11 -6 24 -6q28 0 42 24z" />
    <glyph glyph-name="copyright" unicode="&#xa9;" horiz-adv-x="941" 
d="M894 493q0 196 -124 317q-122 116 -299 116q-188 0 -307 -120t-119 -313q0 -173 124 -296q127 -121 302 -121q203 0 319 134q104 119 104 283zM811 493q0 -163 -121 -262q-99 -81 -219 -81q-136 0 -240 104q-101 101 -101 239q0 154 98 256q99 102 243 102q121 0 217 -75
q123 -97 123 -283zM655 391l1 5t1 8q0 16 -8 24q-10 10 -23 10q-21 0 -32 -24q-29 -43 -52 -60q-25 -18 -66 -18q-67 0 -103 49q-39 48 -39 116q0 71 38 114q39 42 104 42q46 0 77 -27q27 -22 32 -45q15 -25 35 -25q13 0 28 10q9 9 9 25q0 47 -51 86q-54 40 -127 40
q-123 0 -178 -81q-38 -54 -38 -139q0 -96 55 -161q53 -66 158 -66q73 0 115 31q44 35 64 86z" />
    <glyph glyph-name="ordfeminine" unicode="&#xaa;" horiz-adv-x="272" 
d="M249 527v229q0 11 -6 16t-14 5q-21 0 -21 -21l-1 -14q-16 18 -33 27q-17 8 -39 8q-55 0 -86 -39q-31 -40 -31 -97t32 -96q31 -40 85 -40q43 0 73 40v-18q0 -22 21 -22q7 0 14 6q6 5 6 16zM208 641q0 -40 -16 -66q-20 -32 -57 -32q-38 0 -55 29q-18 29 -18 69t16 66
q20 32 57 32q38 0 57 -32q16 -26 16 -66z" />
    <glyph glyph-name="guillemotleft" unicode="&#xab;" horiz-adv-x="412" 
d="M159 104l-94 150l95 149q5 10 5 20q0 15 -11 24q-12 9 -25 9q-16 0 -24 -12l-95 -158q-12 -18 -12 -31q0 -14 12 -32l95 -157q6 -13 21 -13t27 10q12 9 12 24q0 9 -6 17zM329 99l-94 150l95 149q5 10 5 20q0 15 -11 24q-12 9 -25 9q-16 0 -24 -12l-95 -158
q-12 -18 -12 -31q0 -14 12 -32l95 -157q6 -13 21 -13t27 10q12 9 12 24q0 9 -6 17z" />
    <glyph glyph-name="minus" unicode="&#xad;" horiz-adv-x="612" 
d="M505 202q39 0 61 14q22 13 22 30q0 18 -22 32q-23 13 -61 13h-394q-40 0 -61 -13q-21 -14 -21 -32t22 -31q21 -13 60 -13h394z" />
    <glyph glyph-name="minus" unicode="&#x2212;" horiz-adv-x="612" 
d="M505 202q39 0 61 14q22 13 22 30q0 18 -22 32q-23 13 -61 13h-394q-40 0 -61 -13q-21 -14 -21 -32t22 -31q21 -13 60 -13h394z" />
    <glyph glyph-name="registered" unicode="&#xae;" horiz-adv-x="941" 
d="M887 494q0 193 -127 317q-118 117 -298 117q-189 0 -307 -119q-118 -122 -118 -315q0 -173 121 -294q126 -121 304 -121q203 0 320 136q105 119 105 279zM802 494q0 -163 -123 -261q-101 -81 -217 -81q-136 0 -240 104q-102 108 -102 238q0 149 98 255q96 105 244 105
q117 0 216 -77q124 -96 124 -283zM633 583q0 55 -39 91q-38 32 -97 32h-139q-24 0 -31 -5q-8 -11 -8 -32v-360q0 -31 32 -31t32 31v164h77l94 -164q9 -18 29 -28q6 -3 18 -3q32 0 32 28q0 7 -7 16l-1 1l-94 150q53 14 76 42q26 23 26 68zM492 528h-109v125h109q34 0 53 -19
q22 -24 22 -45q0 -24 -21 -43q-21 -18 -54 -18z" />
    <glyph glyph-name="macron" unicode="&#xaf;" horiz-adv-x="430" 
d="M350 536q58 0 58 39q0 16 -15 28q-16 11 -43 11h-275q-29 0 -43 -11q-15 -12 -15 -28t16 -27q15 -12 42 -12h275z" />
    <glyph glyph-name="degree" unicode="&#xb0;" horiz-adv-x="376" 
d="M172 753q-50 0 -83 -39q-33 -40 -33 -94q0 -47 36 -78q35 -32 84 -32h9q49 0 82 36t33 86v9q0 49 -39 81q-39 31 -89 31zM174 710q33 0 57 -22q24 -23 24 -55q0 -33 -22 -57t-53 -24q-34 0 -56 22q-23 21 -23 53q0 34 21 59q21 24 52 24z" />
    <glyph glyph-name="plusminus" unicode="&#xb1;" horiz-adv-x="2309" 
d="M2282 3v957h-2265v-957h2265zM2271 13h-2243v936h2243v-936zM2255 157v649q0 38 -53 84q-50 43 -87 43h-1936q-40 0 -90 -44t-50 -85v-646q0 -32 44 -77q45 -46 79 -46h1970q30 0 77 45q46 45 46 77zM2243 162q0 -30 -41 -73q-42 -43 -76 -43h-1959q-34 0 -76 42
q-41 41 -41 76v635q0 39 46 81q47 41 88 41h1925q40 0 87 -42q47 -43 47 -79v-638zM663 276v31q-4 -7 -6 -11q-18 -32 -31.5 -47t-35.5 -15q-23 0 -37 25.5t-14 59.5q0 20 4 23q12 5 50 11l33.5 6.5t15.5 6.5q10 9 10 44q0 74 -59 74q-53 0 -78 -72q-16 -46 -16 -93
q0 -113 77 -113q10 0 24.5 6t29 15.5t24 22.5t9.5 26zM618 419q0 -27 -14 -38t-59 -21v35q0 6 4 18t10.5 25t14.5 21t16 8q12 0 20 -18t8 -30zM902 236q-3 3 -17 4t-17 4l11 239q-14 3 -27 3q-71 0 -123 -90q-43 -74 -43 -131q0 -59 32 -59q33 0 65 44l42 69q2 -13 2 -40
q0 -16 -2 -46q-1 -21 -1 -27q42 21 78 30zM834 424q0 -42 -29 -101q-32 -63 -65 -72q-14 12 -14 37q0 47 30 100q29 53 65 73q13 -20 13 -37zM550 617l-29 13q11 130 11 154q-46 0 -87 -46q-43 -48 -43 -101q0 -34 29 -34q19 0 37 25l11 17l17 27q0 -3 1 -10q1 -9 1 -13
q0 -11 -1 -23.5t-3 -22.5v-5l2 1q20 9 33 13.5t21 4.5zM505 745q0 -13 -6 -30.5t-16 -35.5t-20.5 -32t-17.5 -21q-14 14 -14 26q0 30 20 64t46 52q0 -2 4 -8t4 -15zM914 617l-29 13q11 130 11 154q-47 0 -87 -46q-43 -48 -43 -101q0 -34 28 -34q20 0 38 25q13 23 27 44
q3 -10 3 -27q0 -14 -1.5 -27.5t-2.5 -19.5q2 1 5 2q18 8 30 12.5t21 4.5zM868 745q0 -11 -6 -28t-15.5 -35t-20 -33.5t-17.5 -22.5q-15 14 -15 26t7 30t18 35.5t22.5 31.5t19.5 19q0 -2 4 -8q3 -6 3 -15zM1607 365q0 119 -57 119q-69 0 -99 -70q-20 -46 -20 -112
q0 -57 14 -76.5t54 -19.5q108 0 108 159zM1567 348q0 -37 -7 -69q-12 -56 -41 -56q-43 0 -43 96q0 40 7 78q12 64 39 64q45 0 45 -113zM272 368q0 39 -28 126q-38 121 -92 121q-10 0 -24.5 -10.5t-20.5 -20.5q63 -22 98 -101q27 -62 27 -127q0 -128 -54 -128q-28 0 -35 45
q-3 12 -3 33q0 38 7.5 81.5t17.5 58.5q2 3 13 14q9 9 14 14.5t5 8.5q-56 -3 -83 -76q-18 -49 -18 -96q0 -105 56 -105q67 0 97 57q23 42 23 105zM470 428v50q-23 -4 -35.5 -17.5t-24.5 -46.5q-11 -30 -21 -44q-5 33 -5 108q-60 -24 -89 -24q8 -8 11 -19q18 7 35 10v-23
q-2 -95 -2 -147q0 -17 1 -41v-22h27l32 128q25 76 71 88zM375 738l15 41h-38v-8q1 -17 1 -30q0 -25 -2 -38q-4 -36 -17 -59.5t-40 -23.5q-28 0 -28 49q0 51 45 109h-101q0 -3 -2 -19q-2 -22 -2.5 -29.5t-0.5 -17.5q13 8 14 25q2 16 6 20h42q-2 -8 -12 -27q-11 -21 -17 -38.5
t-6 -39.5q0 -31 6 -40t31 -9q54 0 69 34q10 22 20 49.5t17 51.5zM674 746v33q-30 -6 -34 -20q-9 -26 -18 -36q-9 40 -11 56q-1 0 -19 -7q-13 -4 -23 -7.5l-13 -4.5q4 -1 17 -3q15 -2 17 -4l-3 -25q-6 -47 -8 -69.5t-2 -38.5q1 -16 15 -17l34 91q17 46 48 52zM737 604
q1 9 1 12q7 60 9 80t2 36q0 14 -1.5 23.5t-5.5 23.5q-35 -12 -56 -20q31 -6 31 -63q0 -7 -1.5 -27.5t-2.5 -29.5q-3 -35 -3 -41q2 0 14 3q11 3 13 3zM1254 245q-1 0 -6 -1q-7 -2 -11 -2q-2 0 -5 1l16 235h-43q-54 -72 -89 -142q0 118 2 142h-38q-47 -62 -95 -142v14
q-1 15 -1 25q0 39 2 97v6q-44 -19 -78 -19q13 -11 21.5 -14.5t18.5 -4.5q-1 -36 -3 -75t-2 -47q-3 -51 -3 -56q0 -20 8 -50h22q9 65 40 129t70 92l-18 -221h33q9 59 41 123.5t75 108.5q0 -68 -12 -238q55 13 55 39zM742 828q4 1 7 9t3 15q0 2 -1 5q-1 6 -9.5 9.5t-18.5 3.5
q-14 0 -14 -22q0 -8 4 -15t16 -7q8 0 13 2zM1078 621q-15 2 -18 5q-4 3 -4 17q0 128 -1 136q-19 -11 -38 -33.5t-43 -57.5q0 70 7 96l-59 -25q20 0 26 -6q-5 -67 -5 -89q0 -23 4.5 -37t15.5 -24q9 71 66 137q0 -45 -1.5 -78.5t-4.5 -63.5q32 11 55 23zM1418 478h-10
q-8 -1 -9 -1q-22 0 -37 6v67q0 12 3.5 40t7.5 53.5t9.5 44t10.5 18.5v0q6 -8 11.5 -12.5t13.5 -4.5v44q-55 -19 -72 -65q-4 -8 -6.5 -29t-5.5 -56q-4 -40 -7.5 -67t-8.5 -39l-41 -19q29 0 40 -7l-21 -399q6 7 20 7h5q4 -1 6 -1q1 6 6 67q3 43 7 91.5t8 90t9.5 86t9.5 69.5
q51 0 51 16zM1147 796q0 6 -15 35q-25 -89 -25 -100q0 -9 3 -14q37 74 37 79zM1266 657q0 11 -7 22.5t-16.5 20t-16.5 14t-10 7.5q-9 9 -9 24q0 12 4.5 20.5t11.5 8.5q11 -11 16 -11l14 -23v39q-1 0 -8 3t-14 3q-19 0 -34.5 -16t-15.5 -35q0 -7 57 -91q0 -20 -32 -34
q-11 5 -15.5 18t-4.5 38q-2 0 -11 3t-11 3v-55q25 -13 45 -13q57 0 57 54zM1874 236q-19 10 -32 14v228h-29q-64 -79 -100 -148q0 26 1.5 59.5t3.5 69.5q1 24 1 25q-56 -28 -84 -38q36 0 40 -6q0 -13 -1.5 -34l-4.5 -62q-3 -39 -4 -49.5t-1 -18.5q0 -40 12 -64h21
q2 25 11.5 55t24.5 59.5t34 54.5t39 41q0 -58 -0.5 -83t-1.5 -40.5t-4 -29t-11 -39.5q-1 -6 -6 -23h4l3 -1q15 0 40 11q38 18 44 19zM1576 783q-60 0 -94 7q22 -20 34 -25q0 -64 -11 -103t-34 -51h102q-19 10 -35 24q1 47 1 83q4 55 37 65zM1726 706q0 -50 -34 -102
q-39 -61 -93 -61q-7 0 -15 1h5q3 -1 4 -1q44 0 75 60q30 54 30 100q0 20 -8 44q-10 32 -26 32q-24 0 -34 -38q-6 -22 -6 -44q0 -57 51 -61q-10 -10 -26 -10q-54 0 -54 74q0 91 69 91q62 0 62 -85zM2039 271l-21 25q0 -26 -12 -47t-30 -21q-8 0 -17 10v198q0 18 23 22
q30 7 39 19h-7q-5 -1 -7 -1q-16 0 -37 7q0 12 -1 43v14q-13 -6 -37 -6q0 -22 -12 -57l-29 -19q23 0 34 -7q-5 -38 -5 -221q22 -19 45 -19q26 0 39 8q19 12 35 52zM1874 706q0 85 -63 85q-36 0 -54 -31q-14 -25 -14 -60q0 -74 54 -74q16 0 26 10q-51 4 -51 61q0 22 5 44
q11 38 34 38q17 0 27 -32q7 -24 7 -44q0 -50 -23 -92q-31 -55 -90 -67q7 -2 14 -2q54 0 94 64q34 53 34 100zM2203 291q0 32 -22 53q-43 39 -55.5 57t-12.5 29q0 12 12.5 24.5t22.5 12.5q5 -5 14 -20q14 -24 23 -31v61q-3 0 -14 3q-16 4 -22 4q-31 0 -51 -22t-20 -52
q0 -13 3.5 -23t11.5 -21t22.5 -26.5l40.5 -41.5l6 -6q8 -22 8 -30q0 -9 -15 -24t-34 -15q-18 0 -30.5 17.5t-12.5 36.5q0 6 4 22q1 7 1 8h-27q4 -7 4 -28q0 -32 -4 -55q38 -18 65 -18q10 0 24.5 6.5t27.5 18t21.5 27t8.5 33.5zM1947 720l-9 -6q-3 -2 -9 -7l-8 -8
q-9 -9 -14 -20q-7 -11 -7 -24q0 -16 8 -29q10 -14 23 -21q16 -7 32 -7h1q16 0 38 10q15 9 27 26q10 17 10 36q0 13 -8 26q-6 9 -15 18q-2 2 -7 6t-7 6l-8 4l-2 1l1 1q7 3 12 7q11 8 17 19q7 10 7 29q0 20 -14 31q-11 12 -39 12q-17 0 -28 -7q-15 -10 -20 -23q-8 -11 -8 -31
q0 -15 5 -25q5 -9 13 -17q6 -5 9 -7zM1921 653q0 14 7 28t12 18l4 4q6 5 9 6l2 2q3 2 4 2l10 -5q15 -7 19 -10q11 -3 18 -14q8 -10 10 -22q0 -23 -14 -37q-15 -15 -36 -17h-3q-19 0 -31 14q-11 14 -11 31zM1979 737q-8 4 -14 8q-4 2 -11 9q-4 3 -8 11q-4 10 -4 18v1h-1
q2 10 7 18q2 4 9 10l4 4q8 4 17 4q17 0 24 -9q11 -7 12 -24q0 -35 -35 -50z" />
    <glyph glyph-name="twosuperior" unicode="&#xb2;" horiz-adv-x="345" 
d="M258 405q0 19 -19 19h-135l120 159q13 18 19 37q5 19 5 37q0 37 -26 63q-27 25 -70 25q-48 0 -78 -28q-35 -30 -35 -83q0 -27 21 -27q20 0 20 20q0 36 18 58t47 22q24 0 40 -16t16 -39q0 -16 -6 -31q-7 -15 -20 -32q-37 -53 -97 -131l-26 -34q-9 -13 -9 -20t6 -12
q5 -6 18 -6h172q8 0 14 6q5 5 5 13z" />
    <glyph glyph-name="threesuperior" unicode="&#xb3;" horiz-adv-x="355" 
d="M237 499q0 32 -16 55t-45 32q42 26 42 75q0 39 -25 66q-26 26 -67 26q-44 0 -69 -26t-25 -64q0 -20 20 -20q9 0 14 3q7 4 7 17q2 22 15 37q12 15 36 15t37 -16t13 -42q0 -46 -50 -57q-23 -6 -23 -19q0 -19 27 -19q28 0 45 -15t17 -52q0 -28 -19 -47t-48 -19q-25 0 -39 13
q-14 12 -21 34q-8 22 -25 22q-18 0 -18 -25q0 -27 24 -51q30 -31 80 -31q48 0 81 30q32 29 32 78z" />
    <glyph glyph-name="acute" unicode="&#xb4;" horiz-adv-x="205" 
d="M181 660q12 5 12 24t-11 37q-9 13 -18 13q-1 0 -3 -1q-3 -1 -4 -1l-149 -63q-12 -5 -17 -14t-5 -19q0 -13 8 -23t22 -10q7 0 15 2z" />
    <glyph glyph-name="mu" unicode="&#xb5;" horiz-adv-x="608" 
d="M530 416q9 12 9 20q0 10 -9 16q-10 5 -25 5q-14 0 -25 -5q-18 -9 -18 -25l1 -3v-4l-78 -292l-63 -39q-77 -45 -117 -45q-38 0 -47 38l88 329q10 17 10 31q0 25 -29 25q-17 0 -32 -12t-15 -32l-82 -306q-5 -19 -24 -102q-18 -81 -32 -150q-14 -65 -14 -79q0 -11 5 -11
q4 0 23 20q23 25 39 36l39 163q17 -7 38 -7q44 0 109 25q52 20 94 47l-4 -15q-16 -16 -16 -28q0 -16 27 -16q20 0 37 11q17 10 17 26q0 7 -3 15z" />
    <glyph glyph-name="paragraph" unicode="&#xb6;" horiz-adv-x="600" 
d="M521 -173v837q0 22 -11 35q-12 13 -36 13h-191q-125 0 -192 -51q-63 -48 -63 -132q0 -82 60 -133q59 -52 154 -52v-517q0 -20 11 -32q10 -11 30 -11q41 0 41 43v819h115v-819q0 -20 11 -32q10 -11 30 -11q41 0 41 43z" />
    <glyph glyph-name="periodcentered" unicode="&#xb7;" horiz-adv-x="265" 
d="M170 299q-16 19 -43 19q-11 0 -20 -3q-10 -3 -17 -10q-19 -16 -19 -43q0 -11 3 -20q3 -10 10 -17q17 -19 43 -19q21 0 39 16q18 15 18 40q0 20 -14 37z" />
    <glyph glyph-name="periodcentered" unicode="&#x2219;" horiz-adv-x="265" 
d="M170 299q-16 19 -43 19q-11 0 -20 -3q-10 -3 -17 -10q-19 -16 -19 -43q0 -11 3 -20q3 -10 10 -17q17 -19 43 -19q21 0 39 16q18 15 18 40q0 20 -14 37z" />
    <glyph glyph-name="cedilla" unicode="&#xb8;" horiz-adv-x="886" 
d="M8 791v-39v-736v-27h32h796h28v32v746v24h-41h-788h-27zM302 296l-99 98l93 92l104 -96zM528 511l-97 -94l-106 97l99 99zM559 481l105 -104l-91 -90l-111 102zM333 266l100 95l108 -103l-98 -101zM209 567l-162 -153v302zM72 747h329l-164 -153zM609 589l-170 158h339z
M825 732v-345l-183 170zM659 207l166 154v-307zM794 28h-324l160 150zM254 188l172 -160h-345zM46 53l1 329l177 -164zM242 235l-174 163l161 152l56 -50l-106 -106l112 -111zM319 255l124 -122l113 111l54 -46l-162 -156l-176 166zM620 540l178 -168l-157 -149l-56 53
l105 102l-117 116zM544 524l-119 115l-113 -114l-53 51l159 151l172 -159zM305 321l61 62l-67 67l-62 -58zM432 444l61 63l-68 68l-68 -63zM491 387l81 -75l61 66l-70 66zM369 260l77 -74l63 65l-75 66zM179 564l-107 97l-4 -199zM348 727l-217 -3l111 -102zM611 618
l115 111l-226 -2zM805 446l-4 222l-113 -107zM808 104l-3 199l-110 -97zM523 45h212l-104 93zM129 43l231 7l-104 102zM68 321v-208l106 100z" />
    <glyph glyph-name="onesuperior" unicode="&#xb9;" horiz-adv-x="320" 
d="M198 382v322q0 12 -14 12h-72q-19 0 -19 -19q0 -8 6 -13q5 -6 13 -6h42v-296q0 -23 22 -23t22 23z" />
    <glyph glyph-name="ordmasculine" unicode="&#xba;" horiz-adv-x="276" 
d="M256 633q0 57 -30 95q-33 41 -87 41q-55 0 -86 -39q-31 -40 -31 -97t32 -96q31 -40 85 -40t87 42q30 38 30 94zM212 633q0 -40 -16 -66q-20 -32 -57 -32q-38 0 -55 29q-18 29 -18 69t16 66q20 32 57 32q38 0 57 -32q16 -26 16 -66z" />
    <glyph glyph-name="guillemotright" unicode="&#xbb;" horiz-adv-x="440" 
d="M199 223q12 18 12 32q0 13 -12 31l-95 158q-10 16 -26 16q-13 0 -24 -11q-11 -12 -11 -26q0 -9 5 -20l95 -149l-94 -150q-5 -12 -5 -19q0 -14 12 -22q11 -8 24 -8q17 0 24 11zM369 223q12 18 12 32q0 13 -12 31l-95 158q-10 16 -26 16q-13 0 -24 -11q-11 -12 -11 -26
q0 -9 5 -20l95 -149l-94 -150q-5 -12 -5 -19q0 -14 12 -22q11 -8 24 -8q17 0 24 11z" />
    <glyph glyph-name="onequarter" unicode="&#xbc;" horiz-adv-x="575" 
d="M533 620q10 17 10 31q0 24 -19 24q-20 0 -43 -35l-432 -573q-14 -21 -14 -37q0 -23 23 -23q19 0 29 18zM181 378v323q0 12 -14 12h-72q-19 0 -19 -19q0 -8 6 -13q5 -6 13 -6h42v-297q0 -24 22 -24t22 24zM537 110q0 8 -5 14q-6 5 -14 5h-23v193q0 36 -33 36q-14 0 -22 -5
q-9 -5 -25 -31l-114 -190q-3 -6 -5 -9l-2 -4q-4 -8 -4 -13q0 -15 19 -15h142v-71q0 -24 22 -24t22 24v71h23q19 0 19 19zM451 129h-106l106 181v-181z" />
    <glyph glyph-name="onehalf" unicode="&#xbd;" horiz-adv-x="568" 
d="M514 625q10 17 10 31q0 24 -19 24q-20 0 -43 -35l-432 -573q-14 -21 -14 -37q0 -23 23 -23q19 0 29 18zM172 412v322q0 12 -14 12h-72q-19 0 -19 -19q0 -8 6 -13q5 -6 13 -6h42v-296q0 -23 22 -23t22 23zM560 23q0 19 -19 19h-135l120 159q13 18 19 37q5 19 5 37
q0 37 -26 63q-27 25 -70 25q-48 0 -78 -28q-35 -30 -35 -83q0 -27 21 -27q20 0 20 20q0 36 18 58t47 22q24 0 40 -16t16 -39q0 -16 -6 -31q-7 -15 -20 -32q-37 -53 -97 -131l-26 -34q-9 -13 -9 -20t6 -12q5 -6 18 -6h172q8 0 14 6q5 5 5 13z" />
    <glyph glyph-name="threequarters" unicode="&#xbe;" horiz-adv-x="585" 
d="M513 611q10 17 10 31q0 24 -19 24q-20 0 -43 -35l-432 -573q-14 -21 -14 -37q0 -23 23 -23q19 0 29 18zM217 499q0 32 -16 55t-45 32q42 26 42 75q0 39 -25 66q-26 26 -67 26q-44 0 -69 -26t-25 -64q0 -20 20 -20q9 0 14 3q7 4 7 17q2 22 15 37q12 15 36 15t37 -16
t13 -42q0 -46 -50 -57q-23 -6 -23 -19q0 -19 27 -19q28 0 45 -15t17 -52q0 -28 -19 -47t-48 -19q-25 0 -39 13q-14 12 -21 34q-8 22 -25 22q-18 0 -18 -25q0 -27 24 -51q30 -31 80 -31q48 0 81 30q32 29 32 78zM547 116q0 8 -5 14q-6 5 -14 5h-23v193q0 36 -33 36
q-14 0 -22 -5q-9 -5 -25 -31l-114 -190q-3 -6 -5 -9l-2 -4q-4 -8 -4 -13q0 -15 19 -15h142v-71q0 -24 22 -24t22 24v71h23q19 0 19 19zM461 135h-106l106 181v-181z" />
    <glyph glyph-name="questiondown" unicode="&#xbf;" horiz-adv-x="441" 
d="M287 491q0 21 -16 34t-37 13t-34 -16t-13 -37q0 -20 16 -33t37 -13q20 0 34 16q13 15 13 36zM417 -31q0 17 -8 25t-20 8t-22 -7t-13 -19q-15 -62 -60 -83q-23 -10 -66 -10q-56 0 -87 30t-31 88q13 75 115 107q43 14 43 43v149q0 16 -10 26q-11 9 -25 9q-15 0 -25 -9
q-11 -10 -11 -26v-118q-80 -28 -116 -61q-50 -45 -50 -120q0 -101 57 -148q49 -41 140 -41q84 0 133 34q56 40 56 123z" />
    <glyph glyph-name="Agrave" unicode="&#xc0;" horiz-adv-x="734" 
d="M713 93l-281 826q-5 15 -11.5 24t-16.5 18q-12 14 -33 14q-45 0 -60 -56l-271 -822l-2 -14q-5 -26 -5 -39q0 -14 4 -30q6 -7 13 -7q16 0 32.5 18.5t30.5 55.5l50 138h424l50 -143q16 -40 32 -51q14 -18 31 -18q24 0 24 33q0 11 -3 21q-1 9 -8 32zM551 306h-364l183 568z
M339 1120l-193 90h-14q-15 0 -26 -12q-9 -19 -9 -35q0 -28 27 -39l182 -75h9q6 -1 12 -1q17 0 24 9q11 10 11 26q0 12 -8 24q-5 9 -15 13z" />
    <glyph glyph-name="Aacute" unicode="&#xc1;" horiz-adv-x="734" 
d="M695 87l-280 826q-8 24 -28 42q-12 14 -32 14q-44 0 -61 -56l-272 -822q-1 -9 -4 -23q-3 -20 -3 -31t4 -26l1 -4q6 -15 14 -15q14 0 30 22t31 60l51 138h424l49 -142q15 -37 33 -53q7 -11 14.5 -18t13.5 -7q26 0 26 42q0 10 -1 24q-1 4 -2 6q-4 14 -8 23zM534 301h-364
l184 567zM593 1107q11 9 11 23q0 27 -14 47q-8 17 -16 17q-1 0 -2 -1q-2 -1 -3 -1l-180 -86q-12 -3 -17 -17v-2q-4 -10 -4 -18q0 -9 5 -21l2 -5q9 -9 21 -9q1 0 7 1h9z" />
    <glyph glyph-name="Acircumflex" unicode="&#xc2;" horiz-adv-x="734" 
d="M713 87l-281 826q-9 26 -28 42q-12 14 -33 14q-44 0 -60 -56l-271 -822l-2 -13q-5 -27 -5 -41t4 -30q6 -15 13 -15q15 0 31.5 22t31.5 60l50 138h424l50 -142q14 -36 32 -53q7 -10 16 -17.5t15 -7.5q24 0 24 42q0 3 -2 15q0 2 -1 9t-8 29zM551 301h-364l183 567z
M504 1013l-84 170q-2 3 -9 7l-5 2q-9 3 -25 3q-28 0 -40 -12l-85 -158v-9q-1 -5 -1 -7q0 -16 11 -27q9 -11 22 -11q10 0 16 7l74 135l70 -137q7 -10 18 -10q10 0 28 10q13 10 13 23q0 7 -3 14z" />
    <glyph glyph-name="Atilde" unicode="&#xc3;" horiz-adv-x="734" 
d="M703 93l-280 826q-5 15 -11.5 24t-16.5 18q-14 14 -34 14q-45 0 -60 -56l-271 -822l-2 -14q-5 -26 -5 -39q0 -17 5 -30q6 -7 13 -7q16 0 32 18.5t30 55.5l50 138h425l49 -143q18 -41 33 -51q14 -18 28 -18q26 0 26 33q0 7 -2 21q-2 10 -9 32zM542 306h-365l183 568z
M558 1119q0 6 -9 14q-3 7 -14 7q-8 0 -18 -8t-20 -20q-13 -19 -23.5 -26.5t-21.5 -7.5q-9 0 -102 43q-41 19 -75 19q-35 0 -72 -34q-32 -30 -32 -65q0 -5 5 -15q8 -4 15 -4q24 0 41 26q28 37 45 37q21 0 79 -35q56 -28 98 -28q19 0 37 7.5t32 23.5q35 29 35 66z" />
    <glyph glyph-name="Adieresis" unicode="&#xc4;" horiz-adv-x="734" 
d="M708 80l-280 827q-11 32 -24 41q-17 14 -36 14q-44 0 -61 -55l-271 -823q0 -3 -1 -8q-6 -34 -6 -46q0 -10 4 -32v-3q5 -8 14 -8q15 0 30.5 21.5t30.5 58.5l51 138h424l50 -141q12 -31 33 -54q6 -12 14.5 -17.5t16.5 -5.5q22 0 22 38q0 14 -1 24t-10 31zM548 294h-365
l184 567zM513 1052q7 11 7 29q0 30 -25 46q-13 12 -27 12q-13 0 -24 -8.5t-20 -22.5q0 -2 -2 -9q-3 -12 -3 -18q0 -32 24 -53l8 -1q10 -2 17 -2q31 0 45 27zM329 1052q8 11 8 29q0 30 -27 46q-13 12 -26 12q-14 0 -24 -8t-20 -23q-5 -17 -5 -27q0 -32 24 -53q5 -1 9 -1
q9 -2 16 -2q31 0 45 27z" />
    <glyph glyph-name="Aring" unicode="&#xc5;" horiz-adv-x="734" 
d="M701 87l-281 826q-9 26 -28 42q-12 14 -33 14q-44 0 -60 -56l-271 -822l-2 -13q-5 -27 -5 -41t4 -30q6 -15 13 -15q15 0 31.5 22.5t31.5 59.5l50 138h424l50 -142q14 -36 32 -53q7 -11 15 -18t14 -7q26 0 26 42q0 2 -1 7q-1 8 -2 17q-1 7 -8 29zM539 301h-364l183 567z
M470 1162q0 58 -31 99q-27 39 -78 39q-46 0 -76 -38q-28 -44 -28 -100q0 -57 28 -99q32 -36 76 -36q51 0 78 36q31 40 31 99zM427 1162q0 -40 -17 -60q-6 -15 -18 -21t-31 -6q-17 0 -29 6.5t-18 21.5q-14 22 -14 59q0 17 3.5 34t10.5 28q6 14 19 22.5t28 8.5q36 0 49 -33
q8 -10 12.5 -26t4.5 -34z" />
    <glyph glyph-name="AE" unicode="&#xc6;" horiz-adv-x="847" 
d="M445 939q-8 0 -17 1h-15q-47 0 -66.5 -12t-27.5 -40l-269 -810q-10 -35 -10 -52q0 -27 8 -37q6 -15 19 -15q34 0 68 86l51 128h204v-110q0 -70 55 -70h302q49 0 49 49q0 18 -13 34q-14 14 -36 14h-271v340h259q21 0 31 14q11 12 11 32q0 22 -11 33q-11 14 -31 14h-259
v308h267q19 0 33 14q11 13 11 33q0 16 -11 33q-10 13 -33 13h-298zM390 288h-176l176 546v-546z" />
    <glyph glyph-name="Ccedilla" unicode="&#xc7;" horiz-adv-x="726" 
d="M347 10l-46 -104l5 -5q3 0 12 3q2 1 8 2h24q37 0 37 -28q0 -8 -2 -16q-11 -50 -75 -50q-4 0 -16 2q-6 1 -13 2q-4 2 -13 4q-4 1 -5 2l-18 5l-24 -37q23 -11 46 -16q7 -1 16 -2q17 -3 24 -3q69 0 109 30q42 25 54 72q1 4 1 18q0 31 -20 45q-19 19 -51 19q-20 0 -35 -5
l32 58h17q74 0 133 21q81 27 125 82q17 25 17 47q0 17 -10 30q-10 10 -27 10q-10 0 -23 -5q-9 -5 -24 -20q-36 -39 -78 -49q-39 -13 -113 -13q-167 0 -240 144q-44 91 -44 228q0 144 65 259q75 133 209 133q41 0 94 -25q50 -27 87 -68q14 -14 29 -14q17 0 35 18q15 18 15 36
t-12 34q-52 55 -116 85q-64 27 -132 27q-191 0 -294 -156q-87 -132 -87 -329q0 -158 65 -282q86 -162 259 -189z" />
    <glyph glyph-name="Egrave" unicode="&#xc8;" horiz-adv-x="534" 
d="M435 -4q49 0 49 50q0 19 -12 34q-13 16 -37 16h-270v340h257q22 0 32 12q12 15 12 33q0 20 -12 32q-9 14 -32 14h-257v310h267q23 0 32 15q11 11 11 29q0 22 -11 34q-9 15 -32 15h-299q-54 0 -54 -70v-791q0 -73 54 -73h302zM310 1079l-191 89h-16q-19 0 -33 -14
q-11 -16 -11 -38q0 -34 33 -43l179 -74q11 -6 24 -6q19 0 31 14q11 11 11 31q0 13 -8 26q-6 12 -19 15z" />
    <glyph glyph-name="Eacute" unicode="&#xc9;" horiz-adv-x="534" 
d="M436 5q49 0 49 49q0 18 -12 34q-13 14 -37 14h-270v340h258q22 0 31 13q13 15 13 32q0 18 -13 34q-13 13 -31 13h-258v309h267q22 0 32 15q11 11 11 33q0 19 -11 31q-10 15 -32 15h-299q-54 0 -54 -72v-789q0 -71 54 -71h302zM516 1075q14 6 14 32t-14 47q-10 18 -22 18
q-2 0 -4 -1t-4 -1l-180 -84l-2 -1q-15 -8 -18 -15q-7 -16 -7 -27q0 -13 10 -30q11 -11 27 -11q6 0 18 2z" />
    <glyph glyph-name="Ecircumflex" unicode="&#xca;" horiz-adv-x="534" 
d="M442 -4q50 0 50 50q0 18 -13 34t-37 16h-270v340h258q20 0 32 12q11 14 11 33q0 21 -11 32q-10 14 -32 14h-258v310h267q21 0 33 15q11 13 11 29q0 20 -11 34q-12 15 -33 15h-298q-55 0 -55 -70v-791q0 -34 14 -53.5t41 -19.5h301zM400 1018l-83 168q-5 10 -17 11
q-11 4 -27 4q-38 0 -46 -15l-86 -157q-5 -7 -5 -18q0 -14 15 -31q13 -14 28 -14q16 0 22 14l67 120l65 -124q9 -15 25 -15q13 0 31 13q15 14 15 32q0 5 -4 12z" />
    <glyph glyph-name="Edieresis" unicode="&#xcb;" horiz-adv-x="534" 
d="M420 -4q50 0 50 50q0 18 -13 34q-12 16 -37 16h-270v340h258q20 0 32 12q11 14 11 33q0 21 -11 32q-10 14 -32 14h-258v310h268q21 0 32 15q11 11 11 29q0 22 -11 34q-11 15 -32 15h-299q-55 0 -55 -70v-791q0 -34 14 -53.5t41 -19.5h301zM416 1043q8 14 8 31
q0 35 -29 56q-13 7 -30 7q-34 0 -50 -31q-8 -13 -8 -32q0 -36 30 -56q13 -8 28 -8q33 0 51 33zM232 1043q8 12 8 31q0 35 -30 56q-13 7 -28 7q-35 0 -51 -31q-8 -11 -8 -32q0 -36 30 -56q14 -8 29 -8q32 0 50 33z" />
    <glyph glyph-name="Igrave" unicode="&#xcc;" horiz-adv-x="266" 
d="M162 29v870q0 18 -12 33q-13 12 -30 12t-31 -12q-13 -14 -13 -33v-870q0 -20 13 -34q18 -14 31 -14q12 0 30 14q12 15 12 34zM135 1107l-191 89h-16q-18 0 -31 -17q-13 -15 -13 -35q0 -33 33 -45l180 -74q14 -7 24 -7q19 0 31 14q10 15 10 32q0 12 -7 27q-9 12 -20 16z
" />
    <glyph glyph-name="Iacute" unicode="&#xcd;" horiz-adv-x="266" 
d="M162 29v870q0 18 -12 33q-13 12 -30 12t-31 -12q-13 -14 -13 -33v-870q0 -20 13 -34q18 -14 31 -14q12 0 30 14q12 15 12 34zM352 1080q14 7 14 34q0 25 -13 47q-11 17 -22 17q-1 0 -3 -1q-4 -1 -5 -1l-180 -80q-12 -8 -21 -21q-5 -7 -5 -25q0 -16 8 -29q9 -14 28 -14
q11 0 18 2z" />
    <glyph glyph-name="Icircumflex" unicode="&#xce;" horiz-adv-x="266" 
d="M162 29v870q0 18 -12 33q-13 12 -30 12t-31 -12q-13 -14 -13 -33v-870q0 -20 13 -34q18 -14 31 -14q12 0 30 14q12 15 12 34zM262 1018l-84 168q-5 10 -17 11q-12 4 -28 4q-36 0 -46 -15l-86 -157q-3 -6 -3 -18q0 -17 14 -31q13 -14 28 -14t22 14l68 120l64 -124
q8 -15 24 -15t32 13q15 14 15 32q0 5 -3 12z" />
    <glyph glyph-name="Idieresis" unicode="&#xcf;" horiz-adv-x="273" 
d="M162 29v870q0 18 -12 33q-13 12 -30 12t-31 -12q-13 -14 -13 -33v-870q0 -20 13 -34q18 -14 31 -14q12 0 30 14q12 15 12 34zM275 1049q7 18 7 30q0 36 -29 58q-16 7 -29 7q-33 0 -51 -31q-7 -14 -7 -34q0 -35 29 -52q15 -10 29 -10q32 0 51 32zM91 1049q7 14 7 30
q0 35 -29 58q-14 7 -29 7q-35 0 -51 -31l-1 -2q-7 -18 -7 -32q0 -35 30 -52q15 -10 29 -10q32 0 51 32z" />
    <glyph glyph-name="Eth" unicode="&#xd0;" horiz-adv-x="803" 
d="M117 438v-374q0 -63 54 -63h240q178 0 266 133q77 119 77 327q0 209 -94 340q-95 131 -249 131h-221q-33 0 -55 -22q-18 -15 -18 -50v-334h-108q-9 -9 -11 -17q-9 -16 -9 -32q1 -10 13 -28q2 -3 7 -8l3 -3h105zM202 526v312h171q145 0 214 -97q63 -87 63 -264
q0 -220 -87 -315q-63 -66 -180 -66h-181v342h160q7 7 8 11q5 12 6 21q0 1 1 3v3q0 10 -10 32q-1 4 -8 18h-157z" />
    <glyph glyph-name="Ntilde" unicode="&#xd1;" horiz-adv-x="810" 
d="M724 55v855q0 22 -13 35q-12 13 -30 13t-31 -13q-12 -12 -12 -35v-731l-448 717q-36 58 -71 58q-33 0 -33 -53v-856q0 -21 13 -35q12 -14 31 -14q16 0 30 14q12 17 12 35v721l450 -720q33 -54 68 -54q34 0 34 63zM618 1086q0 12 -9 20q-7 8 -19 8q-23 0 -44 -33
q-23 -29 -40 -29q-7 0 -99 45q-46 17 -78 17q-41 0 -75 -35q-35 -30 -35 -72q0 -8 9 -17q8 -8 21 -8q19 0 44 31q21 30 38 30q16 0 76 -30q60 -31 101 -31q39 0 75 33q35 34 35 71z" />
    <glyph glyph-name="Ograve" unicode="&#xd2;" horiz-adv-x="829" 
d="M802 470q0 228 -108 355q-99 120 -263 120q-178 0 -275 -144q-88 -131 -88 -331q0 -218 110 -349q101 -126 253 -126q185 0 285 157q86 131 86 318zM706 470q0 -147 -58 -254q-74 -126 -217 -126q-134 0 -205 119q-62 103 -62 261q0 151 48 247q69 137 219 137
q120 0 198 -108q77 -104 77 -276zM416 1086l-190 88h-17q-21 0 -32 -17q-11 -8 -11 -35q0 -32 32 -43l179 -73q12 -6 25 -6q17 0 30 11q11 16 11 32q0 12 -7 28q-6 9 -20 15z" />
    <glyph glyph-name="Oacute" unicode="&#xd3;" horiz-adv-x="829" 
d="M789 477q0 226 -108 355q-104 121 -263 121q-175 0 -275 -146q-88 -127 -88 -330q0 -219 110 -351q102 -122 253 -122q184 0 285 154q86 131 86 319zM693 477q0 -152 -59 -253q-73 -127 -216 -127q-132 0 -206 119q-62 106 -62 261q0 149 48 246q69 137 220 137
q118 0 198 -106q77 -107 77 -277zM638 1070q14 4 14 30q0 28 -14 49q-11 16 -22 16q-5 0 -8 -2l-180 -84q-15 -3 -20 -17q-6 -12 -6 -24q0 -19 9 -31q11 -12 27 -12q12 0 19 3z" />
    <glyph glyph-name="Ocircumflex" unicode="&#xd4;" horiz-adv-x="829" 
d="M788 462q0 227 -108 356q-99 121 -264 121q-176 0 -274 -144q-89 -133 -89 -333q0 -215 111 -350q100 -122 252 -122q185 0 286 156q86 133 86 316zM692 462q0 -147 -59 -253q-73 -126 -217 -126q-132 0 -206 121q-61 103 -61 258q0 152 48 246q67 138 219 138
q121 0 199 -106q77 -107 77 -278zM564 1018l-83 168q-5 10 -18 11q-12 4 -27 4q-37 0 -47 -15l-85 -157q-4 -5 -4 -18q0 -16 15 -31q11 -14 27 -14t22 14l68 120l64 -124q9 -15 24 -15q16 0 32 13q16 14 16 32q0 5 -4 12z" />
    <glyph glyph-name="Otilde" unicode="&#xd5;" horiz-adv-x="829" 
d="M629 1096q0 8 -9 17q-8 5 -19 5q-25 0 -44 -29q-25 -30 -40 -30q-6 0 -99 43q-33 16 -78 16q-43 0 -75 -32q-35 -32 -35 -71q0 -9 9 -17q6 -9 20 -9q21 0 45 30q21 31 38 31t76 -31q59 -30 101 -30q41 0 75 34q35 30 35 73zM795 483q0 225 -107 355q-102 121 -264 121
q-176 0 -275 -146q-88 -130 -88 -330q0 -216 110 -350q101 -123 253 -123q180 0 286 154q85 131 85 319zM700 483q0 -150 -60 -252q-73 -127 -216 -127q-135 0 -206 120q-62 101 -62 259q0 147 49 246q67 136 219 136q120 0 198 -104q78 -113 78 -278z" />
    <glyph glyph-name="Odieresis" unicode="&#xd6;" horiz-adv-x="829" 
d="M782 483q0 226 -108 355q-100 121 -264 121q-176 0 -275 -146q-88 -132 -88 -330q0 -214 110 -350q102 -123 253 -123q181 0 286 154q86 131 86 319zM686 483q0 -152 -59 -252q-73 -127 -217 -127q-134 0 -205 120q-62 101 -62 259q0 152 48 246q69 136 219 136
q121 0 198 -104q78 -111 78 -278zM559 1049q8 16 8 30q0 36 -30 58q-16 7 -29 7q-34 0 -50 -31q-8 -13 -8 -34q0 -35 30 -52q13 -10 28 -10q33 0 51 32zM375 1049q8 16 8 30q0 36 -30 58q-16 7 -28 7q-35 0 -51 -31q-8 -13 -8 -34q0 -35 29 -52q15 -10 30 -10q32 0 50 32z
" />
    <glyph glyph-name="multiply" unicode="&#xd7;" horiz-adv-x="624" 
d="M481 468q-13 13 -28 13q-17 0 -31 -15l-120 -120l-120 120q-16 15 -31 15t-28 -13t-13 -28q0 -17 15 -31l119 -121l-119 -119q-15 -15 -15 -31q0 -15 13 -28t28 -13q17 0 32 15l119 119l120 -119q14 -15 30 -15t29 13t13 29q0 15 -14 31l-120 119l120 120q14 14 14 30
t-13 29z" />
    <glyph glyph-name="Oslash" unicode="&#xd8;" horiz-adv-x="789" 
d="M118 152l-51 -81q-17 -21 -17 -42q0 -29 33 -29q16 0 34 10q6 4 17 13q6 5 9 7l34 58q92 -82 214 -82q181 0 286 156q85 130 85 319q0 115 -32 208q-33 94 -88 155l52 86q10 13 10 31q0 32 -27 32q-11 0 -27 -11q-19 -15 -28 -32l-35 -54q-83 60 -198 60
q-174 0 -272 -145q-89 -130 -89 -330q0 -206 90 -329zM590 760q39 -60 57 -126q20 -71 20 -153q0 -151 -60 -253q-73 -128 -216 -128q-55 0 -93 17q-40 18 -71 52zM174 245q-51 114 -51 236q0 148 48 245q68 137 218 137q86 0 146 -50z" />
    <glyph glyph-name="Ugrave" unicode="&#xd9;" horiz-adv-x="810" 
d="M758 330v577q0 26 -14 40q-13 14 -33 14q-23 0 -34 -14q-14 -12 -14 -40v-577q0 -113 -62 -177q-61 -60 -166 -60q-101 0 -167 59q-72 68 -72 178v577q0 27 -13 40q-14 14 -34 14q-22 0 -35 -14q-14 -14 -14 -40v-577q0 -167 98 -256q89 -75 227 -75q137 0 231 75
q102 89 102 256zM444 1074l-191 86h-15q-22 0 -32 -13q-12 -13 -12 -35q0 -34 33 -46l179 -76q3 -1 4 -1q12 -4 20 -4q18 0 30 15q11 10 11 31q0 15 -8 26q-6 12 -19 17z" />
    <glyph glyph-name="Uacute" unicode="&#xda;" horiz-adv-x="810" 
d="M733 330v577q0 27 -15 40q-14 14 -33 14q-21 0 -34 -14q-13 -12 -13 -40v-577q0 -114 -63 -177q-61 -60 -166 -60q-103 0 -166 59q-72 68 -72 178v577q0 28 -14 40q-14 14 -34 14q-21 0 -34 -14q-14 -11 -14 -40v-577q0 -167 98 -256q89 -75 226 -75q139 0 231 75
q103 88 103 256zM617 1062q14 7 14 34q0 26 -13 45q-12 17 -22 17q-4 0 -7 -3l-181 -81q-12 -4 -21 -18q-5 -10 -5 -25q0 -21 9 -29q8 -15 27 -15q8 0 18 3z" />
    <glyph glyph-name="Ucircumflex" unicode="&#xdb;" horiz-adv-x="810" 
d="M735 330v577q0 26 -14 40q-13 14 -33 14q-22 0 -35 -14q-13 -13 -13 -40v-577q0 -113 -62 -177q-60 -60 -167 -60q-101 0 -166 59q-72 68 -72 178v577q0 27 -13 40q-14 14 -35 14t-34 -14q-14 -14 -14 -40v-577q0 -167 99 -256q89 -75 226 -75t231 75q102 89 102 256z
M541 1011l-83 168q-3 5 -18 11q-4 1 -9 2q-12 4 -18 4q-34 0 -47 -17l-85 -156q-4 -8 -4 -16q0 -16 15 -34q14 -14 27 -14q17 0 22 14l68 123l64 -127q9 -14 24 -14q18 0 32 13q16 14 16 31q0 4 -4 12z" />
    <glyph glyph-name="Udieresis" unicode="&#xdc;" horiz-adv-x="810" 
d="M743 330v577q0 28 -14 40q-14 14 -33 14q-21 0 -34 -14q-13 -12 -13 -40v-577q0 -114 -64 -177q-60 -60 -165 -60q-103 0 -166 59q-72 68 -72 178v577q0 28 -15 40q-13 14 -33 14q-21 0 -34 -14q-14 -11 -14 -40v-577q0 -167 98 -256q89 -75 226 -75q139 0 231 75
q102 87 102 256zM545 1029q7 18 7 32q0 37 -29 55q-18 6 -29 6q-36 0 -51 -28q-7 -18 -7 -33q0 -38 28 -54q14 -8 30 -8q36 0 51 30zM361 1029q6 15 6 32q0 38 -28 55q-18 6 -29 6q-34 0 -51 -28q-7 -18 -7 -33q0 -39 29 -54q13 -8 29 -8q36 0 51 30z" />
    <glyph glyph-name="Yacute" unicode="&#xdd;" horiz-adv-x="569" 
d="M556 885q12 21 12 34q0 38 -33 38q-19 0 -36 -24l-215 -401l-216 401q-9 11 -16 17q-10 7 -17 7q-27 0 -27 -41q0 -9 4 -31l235 -440v-390q0 -17 2.5 -29t7.5 -27q10 -19 25 -19q36 0 36 75v390zM495 1077q11 6 11 26q0 21 -14 43q-5 15 -18 15h-1q-1 -1 -2 -1l-180 -83
l-3 -1q-11 -6 -14 -13q0 -1 -1 -6q-3 -11 -3 -17q0 -10 5 -24l2 -5q8 -8 21 -8h18z" />
    <glyph glyph-name="Thorn" unicode="&#xde;" horiz-adv-x="629" 
d="M169 785l-4 180q0 41 -13 64q-13 21 -31 21q-16 0 -29 -18q-11 -20 -11 -52v-200v-712q0 -34 13 -42q9 -16 31 -16t32 16q12 11 12 42v152h190q122 0 187 88q59 79 59 188q0 140 -62 211q-64 78 -205 78h-169zM519 496q0 -95 -47 -138q-48 -47 -142 -47h-161v382h142
q90 0 139 -32q69 -48 69 -165z" />
    <glyph glyph-name="germandbls" unicode="&#xdf;" horiz-adv-x="677" 
d="M609 270q0 101 -30 168q-40 84 -131 120q54 30 72 84q14 37 14 122q0 112 -55 184q-59 75 -164 75q-125 0 -187 -87q-52 -73 -52 -181v-907q0 -22 13 -36q12 -11 31 -11q18 0 30 11q12 15 12 36v854q0 103 23 153q36 75 130 75q60 0 99 -59q35 -53 35 -125
q0 -56 -24 -100q-25 -43 -73 -57q-42 -9 -42 -44q0 -19 15 -34t37 -15q78 -7 120 -73q33 -55 33 -136q0 -71 -22 -124q-31 -73 -105 -73h-26q-1 0 -5 1h-6q-17 0 -25 -12q-12 -13 -12 -33q0 -23 15 -38q13 -18 43 -18q108 0 175 79q62 80 62 201z" />
    <glyph glyph-name="agrave" unicode="&#xe0;" horiz-adv-x="453" 
d="M404 34v373q0 18 -12 27q-7 9 -22 9t-23 -9q-12 -9 -12 -27l-1 -22q-27 32 -54 43q-27 15 -63 15q-89 0 -142 -69q-48 -60 -48 -154q0 -89 49 -153q54 -68 141 -68q71 0 118 65v-30q0 -20 14 -26q6 -9 21 -9q14 0 22 11q12 5 12 24zM335 220q0 -66 -26 -107
q-34 -52 -92 -52q-61 0 -93 52q-26 43 -26 107q0 66 26 109q34 52 93 52t93 -52q25 -42 25 -109zM203 537l-129 54h-10q-14 0 -21 -10q-9 -9 -9 -21q0 -20 23 -28l120 -47q1 0 2 -1q10 -2 14 -2q11 0 21 8q6 7 6 20q0 11 -4 16q-5 8 -13 11z" />
    <glyph glyph-name="aacute" unicode="&#xe1;" horiz-adv-x="453" 
d="M407 39v372q0 18 -10 27q-13 9 -24 9q-12 0 -21 -9q-12 -9 -12 -27l-2 -22q-28 32 -54 43q-27 15 -64 15q-88 0 -141 -68q-50 -64 -50 -154q0 -92 51 -154q55 -67 140 -67q73 0 120 64v-29q0 -17 12 -29q10 -6 21 -6q10 0 24 7q10 10 10 28zM340 225q0 -67 -26 -107
q-32 -53 -94 -53q-61 0 -92 53q-26 43 -26 107q0 62 27 108q31 52 91 52q63 0 94 -52q26 -41 26 -108zM386 533q9 5 9 20q0 12 -8 30q-7 10 -16 10q-2 0 -4 -1l-123 -51q-9 -3 -13 -11q-5 -10 -5 -16q0 -9 7 -18q6 -9 18 -9q4 0 12 2z" />
    <glyph glyph-name="acircumflex" unicode="&#xe2;" horiz-adv-x="453" 
d="M396 34v373q0 16 -9 27q-12 9 -24 9t-24 -9q-9 -9 -9 -27l-2 -22q-28 32 -54 43q-28 15 -65 15q-89 0 -142 -69q-48 -60 -48 -154q0 -91 49 -153q56 -68 141 -68q71 0 121 65v-30q0 -20 10 -26q11 -9 23 -9q10 0 23 11q10 5 10 24zM330 220q0 -59 -29 -107
q-32 -52 -92 -52t-92 52q-27 48 -27 107q0 62 28 109q32 52 91 52q61 0 92 -52q29 -48 29 -109zM288 503l-56 103q-1 4 -12 6q-7 3 -18 3q-24 0 -30 -9l-59 -97q-2 -6 -2 -11q0 -10 9 -19q9 -10 19 -10q11 0 15 10l46 74l43 -77q7 -10 16 -10q10 0 21 9q11 8 11 19q0 3 -3 9
z" />
    <glyph glyph-name="atilde" unicode="&#xe3;" horiz-adv-x="453" 
d="M393 43v373q0 19 -9 26q-13 8 -24 8t-24 -8q-9 -9 -9 -26l-2 -24q-27 30 -54 45q-26 13 -64 13q-89 0 -142 -66q-49 -64 -49 -155q0 -92 50 -154q52 -66 141 -66q74 0 120 64v-30q0 -16 10 -29q9 -5 23 -5t24 7q9 11 9 27zM327 229q0 -62 -28 -107q-31 -53 -92 -53
t-93 53q-26 43 -26 107t27 106q32 54 92 54q62 0 93 -54q27 -43 27 -106zM357 545q0 5 -5 12q-4 4 -15 4q-16 0 -28 -19q-16 -19 -27 -19q-4 0 -67 27q-23 11 -52 11q-28 0 -51 -20q-23 -21 -23 -44q0 -7 6 -12q5 -5 13 -5q15 0 30 19t26 19q13 0 51 -19t68 -19q27 0 51 20
q23 19 23 45z" />
    <glyph glyph-name="adieresis" unicode="&#xe4;" horiz-adv-x="453" 
d="M393 43v373q0 19 -9 26q-13 8 -24 8t-24 -8q-9 -9 -9 -26l-2 -24q-27 30 -54 45q-26 13 -64 13q-89 0 -142 -66q-49 -64 -49 -155q0 -92 50 -154q52 -66 141 -66q74 0 120 64v-30q0 -16 10 -29q9 -5 23 -5t24 7q9 11 9 27zM327 229q0 -62 -28 -107q-31 -53 -92 -53
t-93 53q-26 43 -26 107t27 106q32 54 92 54q62 0 93 -54q27 -43 27 -106zM302 517q6 9 6 20q0 22 -20 34q-7 5 -19 5q-23 0 -34 -19q-5 -10 -5 -20q0 -23 19 -34q11 -6 20 -6q24 0 33 20zM180 517q4 12 4 20q0 23 -20 34q-6 5 -19 5q-23 0 -34 -19q-5 -7 -5 -20
q0 -24 19 -34q9 -6 20 -6q23 0 35 20z" />
    <glyph glyph-name="aring" unicode="&#xe5;" horiz-adv-x="453" 
d="M400 34v373q0 18 -11 27q-9 9 -22 9t-24 -9q-10 -7 -10 -27l-1 -22q-28 31 -55 43q-28 15 -64 15q-91 0 -142 -69q-48 -60 -48 -154q0 -91 49 -153q53 -68 141 -68q70 0 120 65v-30q0 -21 11 -26q11 -9 23 -9q11 0 22 11q5 2 8 9t3 15zM333 220q0 -61 -29 -107
q-32 -52 -91 -52q-61 0 -93 52q-26 43 -26 107t27 109q32 52 92 52t92 -52q28 -47 28 -109zM265 571q0 36 -21 63q-21 26 -56 26t-56 -25q-20 -24 -20 -64q0 -37 20 -63q21 -26 56 -26t56 26q21 27 21 63zM226 571q0 -21 -9 -36q-8 -14 -29 -14t-28 15q-9 14 -9 35t9 36
q8 15 28 15t29 -16q9 -13 9 -35z" />
    <glyph glyph-name="ae" unicode="&#xe6;" horiz-adv-x="730" 
d="M396 390v17q0 15 -9 26q-12 9 -24 9t-24 -9q-9 -9 -9 -26l-2 -23q-28 31 -54 44q-27 14 -65 14q-89 0 -142 -69q-48 -60 -48 -153q0 -92 49 -154q56 -68 141 -68q72 0 121 66v-31q0 -20 10 -26q11 -9 23 -9q10 0 23 11q10 7 10 24v18q24 -24 59 -37q38 -12 76 -12
q43 0 95 20q44 17 68 44l5 10q3 4 4 6q4 5 4 14q0 13 -11 19q-6 8 -19 8q-42 -28 -65 -41q-30 -18 -80 -18q-58 0 -94 37q-34 39 -34 95h259q32 0 41 8q9 7 9 30q0 81 -49 145q-52 66 -137 66q-40 0 -73 -15q-34 -13 -58 -40zM330 220q0 -60 -29 -108q-31 -51 -92 -51
q-60 0 -92 51q-27 48 -27 108q0 61 28 108q32 52 91 52q61 0 92 -52q29 -48 29 -108zM642 249h-238q0 57 28 92q34 43 95 43q56 0 87 -46q28 -35 28 -89z" />
    <glyph glyph-name="ccedilla" unicode="&#xe7;" horiz-adv-x="374" 
d="M186 2l-28 -51l4 -3q2 1 12 3h16q26 0 26 -18q0 -2 -1 -6v-5q-7 -30 -52 -30q-12 2 -19 3q-6 1 -9 1l-3 1l-11 3l-16 -23q11 -4 31 -8q13 -4 26 -4q44 0 74 18q27 17 35 45q1 4 1 11q0 17 -13 30q-16 9 -34 9q-12 0 -24 -3l17 23h6q47 0 83 17q30 17 30 40q0 11 -6 23
q-10 8 -20 8q-8 0 -33 -13q-23 -12 -54 -12q-62 0 -95 51q-29 46 -29 108t29 108q33 53 95 53q19 0 60 -16q16 -8 28 -8t21 11q7 7 7 20q0 24 -31 38q-31 17 -85 17q-95 0 -147 -70q-49 -60 -49 -153q0 -80 39 -141q44 -65 119 -77z" />
    <glyph glyph-name="egrave" unicode="&#xe8;" horiz-adv-x="424" 
d="M399 232q0 81 -48 144q-55 67 -139 67q-89 0 -144 -68q-51 -61 -51 -155q0 -96 47 -153q54 -68 152 -68q43 0 95 20q47 19 67 45q7 6 11 16q1 4 1 14q0 13 -7 19q-10 7 -19 7q-6 -4 -18 -11q-33 -19 -48 -30q-34 -18 -81 -18q-59 0 -94 38q-34 37 -34 94h261q27 0 39 8
q10 12 10 31zM327 247h-238q0 56 29 91q30 43 94 43q57 0 87 -46q28 -36 28 -88zM201 549l-128 54h-11q-13 0 -21 -9q-9 -9 -9 -22q0 -20 23 -28l120 -47q1 0 4 -1q7 -1 12 -1q14 0 21 8q7 6 7 20q0 8 -4 16q-8 8 -14 10z" />
    <glyph glyph-name="eacute" unicode="&#xe9;" horiz-adv-x="424" 
d="M399 232q0 81 -48 144q-55 67 -139 67q-89 0 -144 -68q-51 -61 -51 -155q0 -96 47 -153q54 -68 152 -68q43 0 95 20q47 19 67 45q7 6 11 16q1 4 1 14q0 13 -7 19q-10 7 -19 7q-6 -4 -18 -11q-33 -19 -48 -30q-34 -18 -81 -18q-59 0 -94 38q-34 37 -34 94h261q27 0 39 8
q10 12 10 31zM327 247h-238q0 56 29 91q30 43 94 43q57 0 87 -46q28 -36 28 -88zM371 530q11 5 11 19t-11 30q-6 11 -13 11q-1 0 -3 -1t-3 -1l-121 -51q-11 -5 -14 -12q-4 -8 -4 -15q0 -10 6 -19q8 -8 18 -8q4 0 12 2z" />
    <glyph glyph-name="ecircumflex" unicode="&#xea;" horiz-adv-x="424" 
d="M399 232q0 81 -48 144q-55 67 -139 67q-89 0 -144 -68q-51 -61 -51 -155q0 -96 47 -153q54 -68 152 -68q43 0 95 20q47 19 67 45q7 6 11 16q1 4 1 14q0 13 -7 19q-10 7 -19 7q-6 -4 -18 -11q-33 -19 -48 -30q-34 -18 -81 -18q-59 0 -94 38q-34 37 -34 94h261q27 0 39 8
q10 12 10 31zM327 247h-238q0 56 29 91q30 43 94 43q57 0 87 -46q28 -36 28 -88zM290 495l-56 103q-4 5 -12 7q-12 2 -18 2q-24 0 -32 -9l-57 -97q-3 -6 -3 -11q0 -9 10 -19q9 -10 19 -10q11 0 14 9l46 75l43 -78q5 -8 17 -8q13 0 21 7q11 9 11 19q0 4 -3 10z" />
    <glyph glyph-name="edieresis" unicode="&#xeb;" horiz-adv-x="424" 
d="M407 227q0 86 -50 144q-52 67 -137 67q-89 0 -143 -67q-51 -61 -51 -154q0 -95 47 -154q54 -69 151 -69q44 0 94 20q40 17 69 46q1 2 2 3q5 9 7 13q4 8 4 14q0 11 -10 19q-9 7 -19 7q-36 -24 -66 -41q-31 -17 -80 -17q-61 0 -94 37q-34 36 -34 94h259q31 0 41 9
q10 7 10 29zM334 243h-237q0 57 28 91q32 42 95 42q54 0 87 -43q27 -37 27 -90zM307 505q6 9 6 19q0 22 -20 35q-9 4 -20 4q-24 0 -35 -19q-4 -10 -4 -20q0 -22 19 -34q10 -5 20 -5q22 0 34 20zM183 505q5 8 5 19q0 22 -19 35q-8 4 -20 4q-23 0 -34 -19q-5 -8 -5 -20
q0 -21 19 -34q12 -5 20 -5q23 0 34 20z" />
    <glyph glyph-name="igrave" unicode="&#xec;" horiz-adv-x="166" 
d="M115 38v366q0 18 -10 28q-8 11 -26 11q-35 0 -35 -39v-366q0 -20 8 -28q13 -11 27 -11q36 0 36 39zM59 541l-129 54h-11q-14 0 -21 -9q-8 -10 -8 -23q0 -20 22 -27l120 -47q9 -3 16 -3q14 0 21 9q8 8 8 19q0 8 -5 16q-7 9 -13 11z" />
    <glyph glyph-name="iacute" unicode="&#xed;" horiz-adv-x="166" 
d="M115 33v367q0 18 -10 28q-7 10 -26 10q-35 0 -35 -38v-367q0 -20 8 -27q12 -12 27 -12q36 0 36 39zM229 533q9 4 9 20q0 18 -9 30q-6 10 -15 10h-2q-2 -1 -3 -1l-121 -51q-5 -2 -12 -9l-2 -2q-4 -8 -4 -16q0 -11 7 -18q5 -9 18 -9q3 0 9 2h2z" />
    <glyph glyph-name="icircumflex" unicode="&#xee;" horiz-adv-x="166" 
d="M119 33v367q0 18 -9 28t-27 10q-36 0 -36 -38v-367q0 -20 10 -27q9 -12 26 -12q36 0 36 39zM168 466l-56 103q-4 6 -12 7q-7 3 -18 3q-24 0 -32 -10l-59 -97q-1 -3 -1 -10q0 -12 9 -20q1 0 3 -2q10 -8 17 -8q9 0 14 10l46 74l44 -77q5 -9 16 -9t22 8q10 8 10 19q0 5 -3 9
z" />
    <glyph glyph-name="idieresis" unicode="&#xef;" horiz-adv-x="166" 
d="M115 35v354q0 37 -34 37t-34 -37v-354q0 -19 10 -25q9 -12 24 -12q34 0 34 37zM172 465q6 8 6 19q0 23 -20 34q-7 5 -19 5q-23 0 -34 -19q-5 -9 -5 -20q0 -23 19 -35q12 -4 20 -4q23 0 33 20zM48 465q6 8 6 19q0 22 -20 34q-7 5 -20 5q-20 0 -34 -19q-6 -10 -6 -20
q0 -22 20 -35q14 -4 20 -4q25 0 34 20z" />
    <glyph glyph-name="eth" unicode="&#xf0;" horiz-adv-x="505" 
d="M223 441q18 -23 41 -62q2 -4 8 -12l9 -15l-10 4q-23 11 -33 14q-2 0 -9 1q-26 2 -40 2q-68 0 -109 -57q-37 -53 -37 -133q0 -78 50 -134q51 -55 127 -55q78 0 126 56q48 57 48 144q0 66 -19 118q-16 54 -50 107q-16 27 -40 53l79 41q2 2 2 11q0 6 -1 12v3q-1 3 -9 6
q-10 5 -20 7l-84 -40q-16 16 -32 30q-10 10 -14 13q-11 10 -14 13q-12 11 -19 13q-5 4 -14 4q-12 0 -20 -10q-10 -10 -10 -24q0 -11 26 -36q18 -16 35 -33l-62 -30q0 -5 -2 -9v-5q-1 -4 -1 -7t1 -7v-2q5 -5 13 -10q8 -4 15 -7zM322 188q0 -55 -24 -88q-27 -38 -78 -38
q-50 0 -77 38q-24 32 -24 88q0 60 25 92q28 34 76 34q51 0 79 -38q23 -32 23 -88z" />
    <glyph glyph-name="ntilde" unicode="&#xf1;" horiz-adv-x="438" 
d="M368 33v241q0 82 -52 129q-43 35 -101 35q-37 0 -67 -13q-31 -16 -53 -43v2q0 54 -36 54q-35 0 -35 -38v-367q0 -19 8 -27q11 -12 27 -12q36 0 36 39v236q0 44 31 76q30 31 69 31q41 0 68 -24q32 -29 32 -83v-236q0 -19 9 -27q11 -12 28 -12q36 0 36 39zM334 533
q0 7 -6 11q-8 5 -14 5q-12 0 -31 -19q-13 -19 -26 -19q-2 0 -67 27q-28 11 -51 11q-26 0 -51 -20q-24 -21 -24 -45q0 -6 6 -12q7 -5 14 -5q15 0 30 20q16 19 26 19q9 0 50 -19q42 -20 69 -20q29 0 51 21q24 22 24 45z" />
    <glyph glyph-name="ograve" unicode="&#xf2;" horiz-adv-x="438" 
d="M382 220q0 91 -49 154q-54 69 -143 69t-142 -69q-48 -60 -48 -154q0 -91 49 -153q56 -68 141 -68q89 0 143 68q49 61 49 153zM310 220q0 -59 -27 -107q-32 -52 -93 -52q-60 0 -92 52q-26 46 -26 107q0 64 27 109q32 52 91 52q61 0 93 -52q27 -48 27 -109zM205 541
l-128 54h-11q-15 0 -21 -9q-8 -10 -8 -23q0 -20 22 -27l121 -47q6 -3 16 -3q13 0 20 9t7 19q0 6 -4 16q-7 9 -14 11z" />
    <glyph glyph-name="oacute" unicode="&#xf3;" horiz-adv-x="438" 
d="M382 220q0 91 -49 154q-54 69 -143 69t-142 -69q-48 -60 -48 -154q0 -91 49 -153q56 -68 141 -68q89 0 143 68q49 61 49 153zM310 220q0 -59 -27 -107q-32 -52 -93 -52q-60 0 -92 52q-26 46 -26 107q0 64 27 109q32 52 91 52q61 0 93 -52q27 -48 27 -109zM352 538
q9 5 9 20q0 11 -9 29q-6 10 -14 10q-2 0 -5 -1l-123 -51q-11 -5 -13 -12q-5 -7 -5 -15t7 -19q6 -8 18 -8q8 0 12 2z" />
    <glyph glyph-name="ocircumflex" unicode="&#xf4;" horiz-adv-x="438" 
d="M382 220q0 91 -49 154q-54 69 -143 69t-142 -69q-48 -60 -48 -154q0 -91 49 -153q56 -68 141 -68q89 0 143 68q49 61 49 153zM310 220q0 -59 -27 -107q-32 -52 -93 -52q-60 0 -92 52q-26 46 -26 107q0 64 27 109q32 52 91 52q61 0 93 -52q27 -48 27 -109zM278 490
l-57 104q-1 4 -11 6q-9 3 -19 3q-25 0 -30 -9l-58 -97q-3 -4 -3 -11q0 -10 10 -20q11 -9 19 -9q11 0 14 9l46 75l43 -77q6 -9 17 -9q12 0 21 8q10 7 10 18q0 6 -2 9z" />
    <glyph glyph-name="otilde" unicode="&#xf5;" horiz-adv-x="438" 
d="M386 220q0 95 -52 154q-50 69 -139 69q-91 0 -142 -69q-48 -60 -48 -154q0 -91 49 -153q54 -68 141 -68t140 68q51 60 51 153zM314 220q0 -60 -28 -107q-31 -52 -91 -52q-61 0 -93 52q-26 43 -26 107t27 109q32 52 92 52t92 -52q27 -45 27 -109zM320 533q0 5 -4 11
q-7 5 -15 5q-13 0 -29 -19q-15 -19 -27 -19q-4 0 -66 27q-28 11 -53 11t-50 -20q-24 -22 -24 -45q0 -6 6 -12q7 -5 14 -5q15 0 29 20q17 19 27 19t51 -19q39 -20 68 -20q26 0 51 21q22 19 22 45z" />
    <glyph glyph-name="odieresis" unicode="&#xf6;" horiz-adv-x="438" 
d="M377 220q0 93 -49 154q-53 69 -141 69q-91 0 -142 -69q-50 -59 -50 -154q0 -90 51 -153q54 -68 141 -68q89 0 142 68q48 62 48 153zM305 220q0 -64 -26 -107q-34 -52 -92 -52q-61 0 -93 52q-27 48 -27 107q0 62 28 109q32 52 92 52q59 0 93 -52q25 -44 25 -109zM291 493
q5 8 5 20q0 24 -20 33q-7 5 -19 5q-23 0 -35 -19q-4 -9 -4 -19q0 -24 19 -34q9 -6 20 -6q22 0 34 20zM167 493q5 8 5 20q0 24 -19 33q-9 5 -20 5q-24 0 -34 -19q-5 -9 -5 -19q0 -24 19 -34q9 -6 20 -6q23 0 34 20z" />
    <glyph glyph-name="divide" unicode="&#xf7;" horiz-adv-x="685" 
d="M399 366q6 11 6 24q0 28 -24 42q-11 6 -24 6q-28 0 -42 -24q-6 -11 -6 -24q0 -28 24 -42q11 -6 24 -6q28 0 42 24zM394 59q6 11 6 24q0 28 -24 42q-11 6 -24 6q-28 0 -42 -24q-6 -11 -6 -24q0 -28 24 -42q11 -6 24 -6q28 0 42 24zM540 187q39 0 61 14q22 13 22 30
q0 18 -22 32q-23 13 -61 13h-394q-40 0 -61 -13q-21 -14 -21 -32t22 -31q21 -13 60 -13h394z" />
    <glyph glyph-name="oslash" unicode="&#xf8;" horiz-adv-x="430" 
d="M370 371q5 9 22 29q12 12 21 22q18 9 18 23q0 20 -22 20q-7 0 -18 -9q-6 -9 -9 -28l-30 -31q-28 29 -59 45q-35 16 -77 16q-89 0 -142 -68q-48 -60 -48 -153q0 -87 46 -151l-44 -47q-18 -12 -18 -24q0 -20 21 -20q11 0 18 10q9 7 12 26l30 33q23 -23 55 -36
q33 -14 70 -14q88 0 141 68q50 64 50 155q0 75 -37 134zM322 312q10 -21 11 -37q1 -13 1 -38q0 -66 -26 -108q-34 -52 -92 -52q-27 0 -45 9q-21 9 -35 26zM119 137q-14 30 -17 46q-5 28 -5 54q0 64 27 107q32 52 92 52q31 0 55 -14q24 -18 38 -40z" />
    <glyph glyph-name="ugrave" unicode="&#xf9;" horiz-adv-x="438" 
d="M368 176v232q0 16 -11 29q-8 10 -25 10q-37 0 -37 -39v-232q0 -111 -100 -111t-100 111v232q0 18 -10 29q-10 10 -26 10q-35 0 -35 -39v-232q0 -91 52 -134q42 -38 119 -38q74 0 119 39q54 44 54 133zM164 549l-128 54h-10q-13 0 -22 -9t-9 -22q0 -20 23 -28l121 -47
q8 -2 16 -2q15 0 20 8q7 5 7 20q0 8 -4 16q-8 8 -14 10z" />
    <glyph glyph-name="uacute" unicode="&#xfa;" horiz-adv-x="438" 
d="M363 176v232q0 16 -11 29q-7 10 -25 10q-36 0 -36 -39v-232q0 -111 -101 -111q-100 0 -100 111v232q0 16 -8 29q-12 10 -27 10q-36 0 -36 -39v-232q0 -91 53 -134q42 -38 118 -38q77 0 120 39q53 44 53 133zM352 538q9 5 9 20q0 11 -9 29q-6 10 -14 10q-2 0 -5 -1
l-123 -51q-11 -5 -13 -12q-5 -7 -5 -15t7 -19q6 -8 18 -8q8 0 12 2z" />
    <glyph glyph-name="ucircumflex" unicode="&#xfb;" horiz-adv-x="438" 
d="M405 176v232q0 16 -11 29q-7 10 -25 10q-36 0 -36 -39v-232q0 -111 -101 -111q-100 0 -100 111v232q0 16 -8 29q-12 10 -27 10q-36 0 -36 -39v-232q0 -91 53 -134q42 -38 118 -38q77 0 120 39q53 44 53 133zM323 523l-55 104q-3 5 -11 6q-9 3 -19 3q-25 0 -31 -9l-58 -97
q-3 -4 -3 -11q0 -10 10 -20q11 -9 19 -9q11 0 15 9l46 75l42 -77q6 -9 17 -9q12 0 21 8q10 8 10 18q0 5 -3 9z" />
    <glyph glyph-name="udieresis" unicode="&#xfc;" horiz-adv-x="438" 
d="M363 172v232q0 17 -11 28q-6 11 -25 11q-36 0 -36 -39v-232q0 -111 -101 -111q-100 0 -100 111v232q0 17 -8 28q-11 11 -27 11q-36 0 -36 -39v-232q0 -91 53 -134q42 -39 118 -39q77 0 120 40q53 42 53 133zM286 481q6 8 6 19q0 22 -20 34q-9 6 -19 6q-23 0 -34 -20
q-5 -7 -5 -20q0 -24 19 -34q10 -5 20 -5q24 0 33 20zM163 481q5 8 5 19q0 23 -20 34q-7 6 -19 6q-23 0 -34 -20q-5 -7 -5 -20q0 -24 19 -34q10 -5 20 -5q23 0 34 20z" />
    <glyph glyph-name="yacute" unicode="&#xfd;" horiz-adv-x="362" 
d="M352 408q2 2 2 11q0 11 -8 19q-13 8 -29 8q-25 0 -34 -27l-99 -298l-99 297q-5 14 -14 20q-10 8 -23 8q-17 0 -23 -17q-7 -8 -7 -18q0 -1 1 -5q1 -2 1 -3l128 -379l-45 -123q-1 -3 -3 -10q-3 -6 -4 -9l-1 -7q-2 -9 -2 -14q0 -12 10 -22q14 -8 22 -8q13 0 27 19q5 6 12 22
q4 7 4 8zM346 502q8 3 8 20t-8 29q-7 11 -15 11q-3 -1 -5 -1l-122 -52q-11 -5 -14 -12q-3 -6 -3 -15q0 -10 6 -18q8 -9 18 -9q4 0 12 2z" />
    <glyph glyph-name="thorn" unicode="&#xfe;" horiz-adv-x="453" 
d="M425 217q0 91 -51 154q-52 67 -136 67q-85 0 -115 -59v11v26q-1 23 -1 90q0 55 -2 59q-4 10 -12 14q-4 1 -19 1q-20 0 -28 -8q-11 -8 -11 -26v-684q0 -18 11 -27q8 -11 25 -11q37 0 37 38v192q4 -3 6 -5q22 -20 31 -23q48 -32 79 -32q83 0 137 69q49 64 49 154zM352 217
q0 -65 -26 -108q-33 -51 -92 -51q-61 0 -93 51q-26 44 -26 108t27 107q31 52 92 52q60 0 93 -52q25 -41 25 -107z" />
    <glyph glyph-name="ydieresis" unicode="&#xff;" horiz-adv-x="362" 
d="M358 409q2 4 2 11q0 8 -8 18q-14 9 -30 9q-23 0 -34 -27l-99 -298l-99 297q-7 14 -13 20q-11 8 -23 8q-17 0 -25 -17q-5 -10 -5 -18q0 -1 1 -5q1 -2 1 -3l128 -379l-47 -123q-2 -6 -6 -20q-3 -9 -3 -20q0 -13 10 -22q14 -8 22 -8q13 0 26 19q11 15 16 30zM286 505
q6 9 6 19q0 23 -20 35q-8 4 -19 4q-24 0 -34 -19q-5 -6 -5 -20q0 -22 19 -34q10 -5 20 -5q24 0 33 20zM163 505q5 10 5 19q0 24 -20 35q-7 4 -19 4q-24 0 -34 -19q-5 -6 -5 -20q0 -22 19 -34q10 -5 20 -5q22 0 34 20z" />
    </font>
</defs>
</svg>
